M48
;Layer_Color=9474304
;FILE_FORMAT=2:4
INCH,LZ
;TYPE=PLATED
T1F00S00C0.0236
T2F00S00C0.0276
T3F00S00C0.0310
T4F00S00C0.0400
T5F00S00C0.0402
T6F00S00C0.0433
T8F00S00C0.0750
%
T01
X0116Y013892
X035692Y01475
X039708
X040792
X044808
X056992Y01755
X061008
X044808Y0165
X040792
X039758
X035742
X0116Y017908
T02
X0396Y0113
Y0123
X0451Y01215
Y01115
X05785Y0107
X05885
X0606
X0616
T03
X036Y01095
Y01295
X0385
Y01095
X04135
Y01295
X04385
Y01095
T04
X0116Y01075
Y01175
X05845Y0128
X05945
X06045
X06295Y01745
X06195
X0395Y0186
X0385
X03665Y01865
X03565
T05
X01615Y0108
X01715
X01815
X01915
X02015
X02115
X02215
X02315
X02415
X02515
X02615
X02715
X02815
X02915
X03015
X03115
X03215
X03315
X03415
Y0208
X03315
X03215
X04115Y0205
Y0195
Y0185
X03115Y0208
X03015
X02915
X02815
X02715
X02615
X02515
X02415
X02315
X02215
X02115
X02015
X01915
X01815
X01715
X01615
T06
X04895Y0208
X04995
X05095
X05195
X05295
X05395
X01095Y02725
Y02825
Y02925
Y03025
Y03125
T08
X05945Y0148
M30
