G04*
G04 #@! TF.GenerationSoftware,Altium Limited,Altium Designer,19.0.10 (269)*
G04*
G04 Layer_Color=128*
%FSTAX24Y24*%
%MOIN*%
G70*
G01*
G75*
%ADD54C,0.0020*%
D54*
X060462Y0107D02*
X060738D01*
X0606Y010562D02*
Y010838D01*
X061462Y0107D02*
X061738D01*
X0616Y010562D02*
Y010838D01*
X058712Y0107D02*
X058988D01*
X05885Y010562D02*
Y010838D01*
X057712Y0107D02*
X057988D01*
X05785Y010562D02*
Y010838D01*
X03645Y01865D02*
X03685D01*
X03665Y01845D02*
Y01885D01*
X03545Y01865D02*
X03585D01*
X03565Y01845D02*
Y01885D01*
X04469Y01475D02*
X044926D01*
X044808Y014632D02*
Y014868D01*
X040674Y01475D02*
X04091D01*
X040792Y014632D02*
Y014868D01*
X04469Y0165D02*
X044926D01*
X044808Y016382D02*
Y016618D01*
X040674Y0165D02*
X04091D01*
X040792Y016382D02*
Y016618D01*
X0393Y0186D02*
X0397D01*
X0395Y0184D02*
Y0188D01*
X0383Y0186D02*
X0387D01*
X0385Y0184D02*
Y0188D01*
X03964Y0165D02*
X039876D01*
X039758Y016382D02*
Y016618D01*
X035624Y0165D02*
X03586D01*
X035742Y016382D02*
Y016618D01*
X035574Y01475D02*
X03581D01*
X035692Y014632D02*
Y014868D01*
X03959Y01475D02*
X039826D01*
X039708Y014632D02*
Y014868D01*
X035845Y01295D02*
X036155D01*
X036Y012795D02*
Y013105D01*
X038345Y01095D02*
X038655D01*
X0385Y010795D02*
Y011105D01*
X038345Y01295D02*
X038655D01*
X0385Y012795D02*
Y013105D01*
X035845Y01095D02*
X036155D01*
X036Y010795D02*
Y011105D01*
X039462Y0123D02*
X039738D01*
X0396Y012162D02*
Y012438D01*
X039462Y0113D02*
X039738D01*
X0396Y011162D02*
Y011438D01*
X044962Y01215D02*
X045238D01*
X0451Y012012D02*
Y012288D01*
X044962Y01115D02*
X045238D01*
X0451Y011012D02*
Y011288D01*
X041195Y01295D02*
X041505D01*
X04135Y012795D02*
Y013105D01*
X043695Y01095D02*
X044005D01*
X04385Y010795D02*
Y011105D01*
X043695Y01295D02*
X044005D01*
X04385Y012795D02*
Y013105D01*
X041195Y01095D02*
X041505D01*
X04135Y010795D02*
Y011105D01*
X053733Y0208D02*
X054167D01*
X05395Y020583D02*
Y021017D01*
X052733Y0208D02*
X053167D01*
X05295Y020583D02*
Y021017D01*
X051733Y0208D02*
X052167D01*
X05195Y020583D02*
Y021017D01*
X050733Y0208D02*
X051167D01*
X05095Y020583D02*
Y021017D01*
X049733Y0208D02*
X050167D01*
X04995Y020583D02*
Y021017D01*
X048733Y0208D02*
X049167D01*
X04895Y020583D02*
Y021017D01*
X040949Y0205D02*
X041351D01*
X04115Y020299D02*
Y020701D01*
X040949Y0195D02*
X041351D01*
X04115Y019299D02*
Y019701D01*
X040949Y0185D02*
X041351D01*
X04115Y018299D02*
Y018701D01*
X010733Y03125D02*
X011167D01*
X01095Y031033D02*
Y031467D01*
X010733Y03025D02*
X011167D01*
X01095Y030033D02*
Y030467D01*
X010733Y02925D02*
X011167D01*
X01095Y029033D02*
Y029467D01*
X010733Y02825D02*
X011167D01*
X01095Y028033D02*
Y028467D01*
X010733Y02725D02*
X011167D01*
X01095Y027033D02*
Y027467D01*
X015949Y0108D02*
X016351D01*
X01615Y010599D02*
Y011001D01*
X016949Y0108D02*
X017351D01*
X01715Y010599D02*
Y011001D01*
X017949Y0108D02*
X018351D01*
X01815Y010599D02*
Y011001D01*
X018949Y0108D02*
X019351D01*
X01915Y010599D02*
Y011001D01*
X019949Y0108D02*
X020351D01*
X02015Y010599D02*
Y011001D01*
X020949Y0108D02*
X021351D01*
X02115Y010599D02*
Y011001D01*
X021949Y0108D02*
X022351D01*
X02215Y010599D02*
Y011001D01*
X022949Y0108D02*
X023351D01*
X02315Y010599D02*
Y011001D01*
X023949Y0108D02*
X024351D01*
X02415Y010599D02*
Y011001D01*
X024949Y0108D02*
X025351D01*
X02515Y010599D02*
Y011001D01*
X025949Y0108D02*
X026351D01*
X02615Y010599D02*
Y011001D01*
X026949Y0108D02*
X027351D01*
X02715Y010599D02*
Y011001D01*
X027949Y0108D02*
X028351D01*
X02815Y010599D02*
Y011001D01*
X028949Y0108D02*
X029351D01*
X02915Y010599D02*
Y011001D01*
X029949Y0108D02*
X030351D01*
X03015Y010599D02*
Y011001D01*
X030949Y0108D02*
X031351D01*
X03115Y010599D02*
Y011001D01*
X031949Y0108D02*
X032351D01*
X03215Y010599D02*
Y011001D01*
X032949Y0108D02*
X033351D01*
X03315Y010599D02*
Y011001D01*
X033949Y0108D02*
X034351D01*
X03415Y010599D02*
Y011001D01*
X033949Y0208D02*
X034351D01*
X03415Y020599D02*
Y021001D01*
X032949Y0208D02*
X033351D01*
X03315Y020599D02*
Y021001D01*
X031949Y0208D02*
X032351D01*
X03215Y020599D02*
Y021001D01*
X030949Y0208D02*
X031351D01*
X03115Y020599D02*
Y021001D01*
X029949Y0208D02*
X030351D01*
X03015Y020599D02*
Y021001D01*
X028949Y0208D02*
X029351D01*
X02915Y020599D02*
Y021001D01*
X027949Y0208D02*
X028351D01*
X02815Y020599D02*
Y021001D01*
X026949Y0208D02*
X027351D01*
X02715Y020599D02*
Y021001D01*
X025949Y0208D02*
X026351D01*
X02615Y020599D02*
Y021001D01*
X024949Y0208D02*
X025351D01*
X02515Y020599D02*
Y021001D01*
X023949Y0208D02*
X024351D01*
X02415Y020599D02*
Y021001D01*
X022949Y0208D02*
X023351D01*
X02315Y020599D02*
Y021001D01*
X021949Y0208D02*
X022351D01*
X02215Y020599D02*
Y021001D01*
X020949Y0208D02*
X021351D01*
X02115Y020599D02*
Y021001D01*
X019949Y0208D02*
X020351D01*
X02015Y020599D02*
Y021001D01*
X018949Y0208D02*
X019351D01*
X01915Y020599D02*
Y021001D01*
X017949Y0208D02*
X018351D01*
X01815Y020599D02*
Y021001D01*
X016949Y0208D02*
X017351D01*
X01715Y020599D02*
Y021001D01*
X015949Y0208D02*
X016351D01*
X01615Y020599D02*
Y021001D01*
X0114Y01175D02*
X0118D01*
X0116Y01155D02*
Y01195D01*
X0114Y01075D02*
X0118D01*
X0116Y01055D02*
Y01095D01*
X011482Y013892D02*
X011718D01*
X0116Y013774D02*
Y01401D01*
X011482Y017908D02*
X011718D01*
X0116Y01779D02*
Y018026D01*
X06025Y0128D02*
X06065D01*
X06045Y0126D02*
Y013D01*
X05925Y0128D02*
X05965D01*
X05945Y0126D02*
Y013D01*
X05825Y0128D02*
X05865D01*
X05845Y0126D02*
Y013D01*
X059075Y0148D02*
X059825D01*
X05945Y014425D02*
Y015175D01*
X066455Y01435D02*
X067045D01*
X06675Y014055D02*
Y014645D01*
X064455Y01285D02*
X065045D01*
X06475Y012555D02*
Y013145D01*
X064455Y01535D02*
X065045D01*
X06475Y015055D02*
Y015645D01*
X06089Y01755D02*
X061126D01*
X061008Y017432D02*
Y017668D01*
X056874Y01755D02*
X05711D01*
X056992Y017432D02*
Y017668D01*
X06275Y01745D02*
X06315D01*
X06295Y01725D02*
Y01765D01*
X06175Y01745D02*
X06215D01*
X06195Y01725D02*
Y01765D01*
M02*
