G04*
G04 #@! TF.GenerationSoftware,Altium Limited,Altium Designer,19.0.10 (269)*
G04*
G04 Layer_Color=65535*
%FSTAX24Y24*%
%MOIN*%
G70*
G01*
G75*
%ADD10C,0.0100*%
%ADD11C,0.0040*%
%ADD12C,0.0060*%
%ADD13C,0.0079*%
%ADD14C,0.0120*%
%ADD15C,0.0070*%
%ADD16C,0.0050*%
D10*
X060604Y011076D02*
G03*
X06061Y010324I-000004J-000376D01*
G01*
X061606Y010324D02*
G03*
X0616Y011076I000004J000376D01*
G01*
X058846Y010324D02*
G03*
X05884Y011076I000004J000376D01*
G01*
X057844Y011076D02*
G03*
X05785Y010324I-000004J-000376D01*
G01*
X039976Y012296D02*
G03*
X039224Y01229I-000376J000004D01*
G01*
X039224Y011294D02*
G03*
X039976Y0113I000376J-000004D01*
G01*
X045476Y012146D02*
G03*
X044724Y01214I-000376J000004D01*
G01*
X044724Y011144D02*
G03*
X045476Y01115I000376J-000004D01*
G01*
X06063Y01108D02*
X06159D01*
X0606Y01032D02*
X0616D01*
X05786D02*
X05882D01*
X05785Y01108D02*
X05885D01*
X04106Y01475D02*
X04158D01*
X04401D02*
X04453D01*
X0416Y014258D02*
X044D01*
Y015242D01*
X0416D02*
X044D01*
X0416Y014258D02*
Y015242D01*
X04106Y0165D02*
X04158D01*
X04401D02*
X04453D01*
X0416Y016008D02*
X044D01*
Y016992D01*
X0416D02*
X044D01*
X0416Y016008D02*
Y016992D01*
X03601Y0165D02*
X03653D01*
X03896D02*
X03948D01*
X03655Y016008D02*
X03895D01*
Y016992D01*
X03655D02*
X03895D01*
X03655Y016008D02*
Y016992D01*
X03892Y01475D02*
X03944D01*
X03597D02*
X03649D01*
X0365Y015242D02*
X0389D01*
X0365Y014258D02*
Y015242D01*
Y014258D02*
X0389D01*
Y015242D01*
X03998Y01131D02*
Y01227D01*
X03922Y0113D02*
Y0123D01*
X04548Y01116D02*
Y01212D01*
X04472Y01115D02*
Y01215D01*
X0116Y01712D02*
Y01764D01*
Y01417D02*
Y01469D01*
X011108Y0147D02*
Y0171D01*
Y0147D02*
X012092D01*
Y0171D01*
X011108D02*
X012092D01*
X05726Y01755D02*
X05778D01*
X06021D02*
X06073D01*
X0578Y017058D02*
X0602D01*
Y018042D01*
X0578D02*
X0602D01*
X0578Y017058D02*
Y018042D01*
X0608Y01175D02*
X0607Y01185D01*
X0605D01*
X0604Y01175D01*
Y01135D01*
X0605Y01125D01*
X0607D01*
X0608Y01135D01*
X061Y01175D02*
X0611Y01185D01*
X0613D01*
X0614Y01175D01*
Y01165D01*
X0613Y01155D01*
X0612D01*
X0613D01*
X0614Y01145D01*
Y01135D01*
X0613Y01125D01*
X0611D01*
X061Y01135D01*
X0561Y0109D02*
X056Y011D01*
X0558D01*
X0557Y0109D01*
Y0105D01*
X0558Y0104D01*
X056D01*
X0561Y0105D01*
X0566Y0104D02*
Y011D01*
X0563Y0107D01*
X0567D01*
X035726Y0204D02*
Y0198D01*
X036125D01*
X036325D02*
X036525D01*
X036425D01*
Y0204D01*
X036325Y0203D01*
X04025Y01525D02*
Y01585D01*
X04055D01*
X04065Y01575D01*
Y01555D01*
X04055Y01545D01*
X04025D01*
X04045D02*
X04065Y01525D01*
X04125D02*
X04085D01*
X04125Y01565D01*
Y01575D01*
X04115Y01585D01*
X04095D01*
X04085Y01575D01*
X0424Y0174D02*
Y018D01*
X0427D01*
X0428Y0179D01*
Y0177D01*
X0427Y0176D01*
X0424D01*
X0426D02*
X0428Y0174D01*
X0433D02*
Y018D01*
X043Y0177D01*
X0434D01*
X03835Y0202D02*
Y0196D01*
X03875D01*
X03935D02*
X03895D01*
X03935Y02D01*
Y0201D01*
X03925Y0202D01*
X03905D01*
X03895Y0201D01*
X03715Y0175D02*
Y0181D01*
X03745D01*
X03755Y018D01*
Y0178D01*
X03745Y0177D01*
X03715D01*
X03735D02*
X03755Y0175D01*
X03815Y0181D02*
X03795Y018D01*
X03775Y0178D01*
Y0176D01*
X03785Y0175D01*
X03805D01*
X03815Y0176D01*
Y0177D01*
X03805Y0178D01*
X03775D01*
X0355Y0154D02*
Y016D01*
X0358D01*
X0359Y0159D01*
Y0157D01*
X0358Y0156D01*
X0355D01*
X0357D02*
X0359Y0154D01*
X0361D02*
X0363D01*
X0362D01*
Y016D01*
X0361Y0159D01*
X036975Y013825D02*
X036875Y013925D01*
X036675D01*
X036575Y013825D01*
Y013725D01*
X036675Y013625D01*
X036875D01*
X036975Y013525D01*
Y013425D01*
X036875Y013325D01*
X036675D01*
X036575Y013425D01*
X037175Y013925D02*
Y013325D01*
X037375Y013525D01*
X037575Y013325D01*
Y013925D01*
X037775Y013325D02*
X037975D01*
X037875D01*
Y013925D01*
X037775Y013825D01*
X0403Y0119D02*
X0402Y0118D01*
Y0116D01*
X0403Y0115D01*
X0407D01*
X0408Y0116D01*
Y0118D01*
X0407Y0119D01*
X0408Y0121D02*
Y0123D01*
Y0122D01*
X0402D01*
X0403Y0121D01*
X046Y01165D02*
X0459Y01155D01*
Y01135D01*
X046Y01125D01*
X0464D01*
X0465Y01135D01*
Y01155D01*
X0464Y01165D01*
X0465Y01225D02*
Y01185D01*
X0461Y01225D01*
X046D01*
X0459Y01215D01*
Y01195D01*
X046Y01185D01*
X0423Y0138D02*
X0422Y0139D01*
X042D01*
X0419Y0138D01*
Y0137D01*
X042Y0136D01*
X0422D01*
X0423Y0135D01*
Y0134D01*
X0422Y0133D01*
X042D01*
X0419Y0134D01*
X0425Y0139D02*
Y0133D01*
X0427Y0135D01*
X0429Y0133D01*
Y0139D01*
X043499Y0133D02*
X0431D01*
X043499Y0137D01*
Y0138D01*
X0434Y0139D01*
X0432D01*
X0431Y0138D01*
X05005Y015D02*
Y0144D01*
X05035D01*
X05045Y0145D01*
Y0149D01*
X05035Y015D01*
X05005D01*
X05105Y0149D02*
X05095Y015D01*
X05075D01*
X05065Y0149D01*
Y0148D01*
X05075Y0147D01*
X05095D01*
X05105Y0146D01*
Y0145D01*
X05095Y0144D01*
X05075D01*
X05065Y0145D01*
X05125Y0149D02*
X05135Y015D01*
X05155D01*
X051649Y0149D01*
Y0148D01*
X05155Y0147D01*
X05145D01*
X05155D01*
X051649Y0146D01*
Y0145D01*
X05155Y0144D01*
X05135D01*
X05125Y0145D01*
X052249Y0144D02*
X051849D01*
X052249Y0148D01*
Y0149D01*
X052149Y015D01*
X051949D01*
X051849Y0149D01*
X052449D02*
X052549Y015D01*
X052749D01*
X052849Y0149D01*
Y0148D01*
X052749Y0147D01*
X052649D01*
X052749D01*
X052849Y0146D01*
Y0145D01*
X052749Y0144D01*
X052549D01*
X052449Y0145D01*
X053049Y0144D02*
X053249D01*
X053149D01*
Y015D01*
X053049Y0149D01*
X0425Y01855D02*
X0431D01*
Y01885D01*
X043Y01895D01*
X0426D01*
X0425Y01885D01*
Y01855D01*
Y01915D02*
X0431D01*
X0428D01*
Y01955D01*
X0425D01*
X0431D01*
X0425Y01975D02*
Y020149D01*
Y01995D01*
X0431D01*
Y020349D02*
Y020549D01*
Y020449D01*
X0425D01*
X0426Y020349D01*
X0431Y020849D02*
Y021049D01*
Y020949D01*
X0425D01*
X0426Y020849D01*
X02365Y0288D02*
Y0282D01*
X02405D01*
X02455D02*
X02435D01*
X02425Y0283D01*
Y0285D01*
X02435Y0286D01*
X02455D01*
X02465Y0285D01*
Y0284D01*
X02425D01*
X025249Y0288D02*
Y0282D01*
X02495D01*
X02485Y0283D01*
Y0285D01*
X02495Y0286D01*
X025249D01*
X026049Y0282D02*
Y0288D01*
X026249Y0286D01*
X026449Y0288D01*
Y0282D01*
X026749Y0286D02*
X026949D01*
X027049Y0285D01*
Y0282D01*
X026749D01*
X026649Y0283D01*
X026749Y0284D01*
X027049D01*
X027349Y0287D02*
Y0286D01*
X027249D01*
X027449D01*
X027349D01*
Y0283D01*
X027449Y0282D01*
X027749Y0286D02*
Y0282D01*
Y0284D01*
X027849Y0285D01*
X027949Y0286D01*
X028049D01*
X028348Y0282D02*
X028548D01*
X028448D01*
Y0286D01*
X028348D01*
X028848D02*
X029248Y0282D01*
X029048Y0284D01*
X029248Y0286D01*
X028848Y0282D01*
X013206Y0223D02*
Y0218D01*
X013306Y0217D01*
X013506D01*
X013606Y0218D01*
Y0223D01*
X013806Y0217D02*
X014006D01*
X013906D01*
Y0223D01*
X013806Y0222D01*
X011155Y018525D02*
Y019125D01*
X011455D01*
X011555Y019025D01*
Y018825D01*
X011455Y018725D01*
X011155D01*
X011355D02*
X011555Y018525D01*
X011755Y019025D02*
X011855Y019125D01*
X012055D01*
X012155Y019025D01*
Y018925D01*
X012055Y018825D01*
X011955D01*
X012055D01*
X012155Y018725D01*
Y018625D01*
X012055Y018525D01*
X011855D01*
X011755Y018625D01*
X05649Y01693D02*
X05669D01*
X05659D01*
Y01633D01*
X05649D01*
X05669D01*
X05739Y01683D02*
X05729Y01693D01*
X05709D01*
X05699Y01683D01*
Y01643D01*
X05709Y01633D01*
X05729D01*
X05739Y01643D01*
X05759Y01633D02*
X05779D01*
X05769D01*
Y01693D01*
X05759Y01683D01*
X063555Y016785D02*
X063355D01*
X063455D01*
Y016285D01*
X063355Y016185D01*
X063255D01*
X063155Y016285D01*
X063755Y016185D02*
Y016585D01*
X063955Y016785D01*
X064155Y016585D01*
Y016185D01*
Y016485D01*
X063755D01*
X064754Y016685D02*
X064655Y016785D01*
X064455D01*
X064355Y016685D01*
Y016285D01*
X064455Y016185D01*
X064655D01*
X064754Y016285D01*
X064954Y016785D02*
Y016185D01*
Y016385D01*
X065354Y016785D01*
X065054Y016485D01*
X065354Y016185D01*
X066154Y016785D02*
Y016185D01*
X066454D01*
X066554Y016285D01*
Y016685D01*
X066454Y016785D01*
X066154D01*
X067154Y016685D02*
X067054Y016785D01*
X066854D01*
X066754Y016685D01*
Y016285D01*
X066854Y016185D01*
X067054D01*
X067154Y016285D01*
X067354Y016185D02*
X067554D01*
X067454D01*
Y016785D01*
X067354Y016685D01*
X05678Y01839D02*
Y01899D01*
X05708D01*
X05718Y01889D01*
Y01869D01*
X05708Y01859D01*
X05678D01*
X05698D02*
X05718Y01839D01*
X05778Y01899D02*
X05738D01*
Y01869D01*
X05758Y01879D01*
X05768D01*
X05778Y01869D01*
Y01849D01*
X05768Y01839D01*
X05748D01*
X05738Y01849D01*
X061685Y019155D02*
Y018555D01*
X062085D01*
X062285Y019055D02*
X062385Y019155D01*
X062585D01*
X062685Y019055D01*
Y018955D01*
X062585Y018855D01*
X062485D01*
X062585D01*
X062685Y018755D01*
Y018655D01*
X062585Y018555D01*
X062385D01*
X062285Y018655D01*
D11*
X036741Y01865D02*
G03*
X036741Y01865I-000591J0D01*
G01*
X039591Y0186D02*
G03*
X039591Y0186I-000591J0D01*
G01*
X012191Y01125D02*
G03*
X012191Y01125I-000591J0D01*
G01*
X063041Y01745D02*
G03*
X063041Y01745I-000591J0D01*
G01*
X03595Y01815D02*
Y01915D01*
Y01815D02*
X03635Y01865D01*
Y01815D02*
Y01865D01*
X03595Y01915D02*
X03635Y01865D01*
Y01915D01*
X0388Y0181D02*
Y0191D01*
Y0181D02*
X0392Y0186D01*
Y0181D02*
Y0186D01*
X0388Y0191D02*
X0392Y0186D01*
Y0191D01*
X0111Y01105D02*
X0121D01*
X0116Y01145D02*
X0121Y01105D01*
X0116Y01145D02*
X0121D01*
X0111Y01105D02*
X0116Y01145D01*
X0111D02*
X0116D01*
X06225Y01695D02*
Y01795D01*
Y01695D02*
X06265Y01745D01*
Y01695D02*
Y01745D01*
X06225Y01795D02*
X06265Y01745D01*
Y01795D01*
D12*
X03775Y012D02*
G03*
X03775Y012I-0005J0D01*
G01*
X0431D02*
G03*
X0431Y012I-0005J0D01*
G01*
X03615Y01145D02*
Y0124D01*
X03646Y01095D02*
X038D01*
X0384Y01145D02*
Y0124D01*
X03645Y01295D02*
X038D01*
X0415Y01145D02*
Y0124D01*
X04181Y01095D02*
X04335D01*
X04375Y01145D02*
Y0124D01*
X0418Y01295D02*
X04335D01*
D13*
X016142Y010064D02*
G03*
X016142Y010064I-000039J0D01*
G01*
X04845Y0203D02*
Y0213D01*
X05445Y0203D02*
Y0213D01*
X04845Y0203D02*
X05445D01*
X04845Y0213D02*
X05445D01*
X05345Y0203D02*
Y0213D01*
X04065Y017902D02*
Y021098D01*
Y017902D02*
X04165D01*
Y021098D01*
X04065D02*
X04165D01*
X04065Y02D02*
X04165D01*
X01045Y02675D02*
X01145D01*
X01045D02*
Y03175D01*
X01145Y02675D02*
Y03175D01*
X01045D02*
X01145D01*
X01045Y02775D02*
X01145D01*
D14*
X059114Y015235D02*
G03*
X059788Y015234I000336J-000435D01*
G01*
X06075Y0148D02*
X06115D01*
Y0158D01*
X06175D01*
Y0148D02*
Y0158D01*
Y0148D02*
X0622D01*
Y0158D01*
X06245D01*
Y01155D02*
Y0158D01*
X0622Y01155D02*
X06245D01*
X05775Y0148D02*
X05815D01*
X05775D02*
Y0158D01*
X05715D02*
X05775D01*
X05715Y0148D02*
Y0158D01*
X0567Y0148D02*
X05715D01*
X0567D02*
Y0158D01*
X05645D02*
X0567D01*
X05645Y01155D02*
Y0158D01*
Y01155D02*
X0567D01*
Y0139D01*
X0622D01*
Y01155D02*
Y0139D01*
X0575Y0121D02*
Y01375D01*
Y0121D02*
X0614D01*
Y01375D01*
X0575D02*
X0614D01*
X05815Y0148D02*
Y0158D01*
X05895D01*
X06075Y0148D02*
Y0158D01*
X05995D02*
X06075D01*
X05895Y0154D02*
X05911Y01524D01*
X05895Y0154D02*
Y0158D01*
X05995Y0154D02*
Y0158D01*
X059786Y015236D02*
X05995Y0154D01*
D15*
X03839Y0108D02*
X0384Y01081D01*
X04374Y0108D02*
X04375Y01081D01*
X06325Y01055D02*
X06655D01*
Y00985D02*
Y0153D01*
X06325Y00985D02*
Y0153D01*
X06655D01*
X06325Y00985D02*
X06655D01*
D16*
X015658Y010308D02*
X034634D01*
X015658Y021292D02*
X034634D01*
X015658Y019343D02*
Y021292D01*
Y010308D02*
Y012257D01*
X013217D02*
X015658D01*
X013217D02*
Y019343D01*
X015658D01*
X034634Y010308D02*
Y014198D01*
X034989D01*
Y017398D01*
X034634D02*
X034989D01*
X034634D02*
Y021292D01*
M02*
