G04*
G04 #@! TF.GenerationSoftware,Altium Limited,Altium Designer,19.0.10 (269)*
G04*
G04 Layer_Color=2752767*
%FSTAX24Y24*%
%MOIN*%
G70*
G01*
G75*
%ADD54C,0.0020*%
%ADD55C,0.0027*%
D54*
X06052Y01062D02*
Y01078D01*
X06068D01*
Y01062D01*
X06052D01*
X06152D02*
Y01078D01*
X06168D01*
Y01062D01*
X06152D01*
X05877D02*
Y01078D01*
X05893D01*
Y01062D01*
X05877D01*
X05777D02*
Y01078D01*
X05793D01*
Y01062D01*
X05777D01*
X044808Y01467D02*
X044728Y01483D01*
X044888D01*
X044808Y01467D01*
X040792D02*
X040712Y01483D01*
X040872D01*
X040792Y01467D01*
X044808Y01642D02*
X044728Y01658D01*
X044888D01*
X044808Y01642D01*
X040792D02*
X040712Y01658D01*
X040872D01*
X040792Y01642D01*
X039758D02*
X039678Y01658D01*
X039838D01*
X039758Y01642D01*
X035742D02*
X035662Y01658D01*
X035822D01*
X035742Y01642D01*
X035692Y01467D02*
X035612Y01483D01*
X035772D01*
X035692Y01467D01*
X039708D02*
X039628Y01483D01*
X039788D01*
X039708Y01467D01*
X036Y01287D02*
X03604Y01291D01*
X03608D01*
X03604Y01295D01*
X03608Y01299D01*
X03604D01*
X036Y01303D01*
X03596Y01299D01*
X03592D01*
X03596Y01295D01*
X03592Y01291D01*
X03596D01*
X036Y01287D01*
X0385Y01087D02*
X03854Y01091D01*
X03858D01*
X03854Y01095D01*
X03858Y01099D01*
X03854D01*
X0385Y01103D01*
X03846Y01099D01*
X03842D01*
X03846Y01095D01*
X03842Y01091D01*
X03846D01*
X0385Y01087D01*
Y01287D02*
X03854Y01291D01*
X03858D01*
X03854Y01295D01*
X03858Y01299D01*
X03854D01*
X0385Y01303D01*
X03846Y01299D01*
X03842D01*
X03846Y01295D01*
X03842Y01291D01*
X03846D01*
X0385Y01287D01*
X036Y01087D02*
X03604Y01091D01*
X03608D01*
X03604Y01095D01*
X03608Y01099D01*
X03604D01*
X036Y01103D01*
X03596Y01099D01*
X03592D01*
X03596Y01095D01*
X03592Y01091D01*
X03596D01*
X036Y01087D01*
X03952Y01222D02*
Y01238D01*
X03968D01*
Y01222D01*
X03952D01*
Y01122D02*
Y01138D01*
X03968D01*
Y01122D01*
X03952D01*
X04502Y01207D02*
Y01223D01*
X04518D01*
Y01207D01*
X04502D01*
Y01107D02*
Y01123D01*
X04518D01*
Y01107D01*
X04502D01*
X04135Y01287D02*
X04139Y01291D01*
X04143D01*
X04139Y01295D01*
X04143Y01299D01*
X04139D01*
X04135Y01303D01*
X04131Y01299D01*
X04127D01*
X04131Y01295D01*
X04127Y01291D01*
X04131D01*
X04135Y01287D01*
X04385Y01087D02*
X04389Y01091D01*
X04393D01*
X04389Y01095D01*
X04393Y01099D01*
X04389D01*
X04385Y01103D01*
X04381Y01099D01*
X04377D01*
X04381Y01095D01*
X04377Y01091D01*
X04381D01*
X04385Y01087D01*
Y01287D02*
X04389Y01291D01*
X04393D01*
X04389Y01295D01*
X04393Y01299D01*
X04389D01*
X04385Y01303D01*
X04381Y01299D01*
X04377D01*
X04381Y01295D01*
X04377Y01291D01*
X04381D01*
X04385Y01287D01*
X04135Y01087D02*
X04139Y01091D01*
X04143D01*
X04139Y01095D01*
X04143Y01099D01*
X04139D01*
X04135Y01103D01*
X04131Y01099D01*
X04127D01*
X04131Y01095D01*
X04127Y01091D01*
X04131D01*
X04135Y01087D01*
X05387Y02072D02*
X05391Y0208D01*
X05387Y02088D01*
X05395Y02084D01*
X05403Y02088D01*
X05399Y0208D01*
X05403Y02072D01*
X05395Y02076D01*
X05387Y02072D01*
X05287D02*
X05291Y0208D01*
X05287Y02088D01*
X05295Y02084D01*
X05303Y02088D01*
X05299Y0208D01*
X05303Y02072D01*
X05295Y02076D01*
X05287Y02072D01*
X05187D02*
X05191Y0208D01*
X05187Y02088D01*
X05195Y02084D01*
X05203Y02088D01*
X05199Y0208D01*
X05203Y02072D01*
X05195Y02076D01*
X05187Y02072D01*
X05087D02*
X05091Y0208D01*
X05087Y02088D01*
X05095Y02084D01*
X05103Y02088D01*
X05099Y0208D01*
X05103Y02072D01*
X05095Y02076D01*
X05087Y02072D01*
X04987D02*
X04991Y0208D01*
X04987Y02088D01*
X04995Y02084D01*
X05003Y02088D01*
X04999Y0208D01*
X05003Y02072D01*
X04995Y02076D01*
X04987Y02072D01*
X04887D02*
X04891Y0208D01*
X04887Y02088D01*
X04895Y02084D01*
X04903Y02088D01*
X04899Y0208D01*
X04903Y02072D01*
X04895Y02076D01*
X04887Y02072D01*
X04111Y02046D02*
Y02042D01*
X04119D01*
Y02046D01*
X04123D01*
Y02054D01*
X04119D01*
Y02058D01*
X04111D01*
Y02054D01*
X04107D01*
Y02046D01*
X04111D01*
Y01946D02*
Y01942D01*
X04119D01*
Y01946D01*
X04123D01*
Y01954D01*
X04119D01*
Y01958D01*
X04111D01*
Y01954D01*
X04107D01*
Y01946D01*
X04111D01*
Y01846D02*
Y01842D01*
X04119D01*
Y01846D01*
X04123D01*
Y01854D01*
X04119D01*
Y01858D01*
X04111D01*
Y01854D01*
X04107D01*
Y01846D01*
X04111D01*
X01087Y03117D02*
X01091Y03125D01*
X01087Y03133D01*
X01095Y03129D01*
X01103Y03133D01*
X01099Y03125D01*
X01103Y03117D01*
X01095Y03121D01*
X01087Y03117D01*
Y03017D02*
X01091Y03025D01*
X01087Y03033D01*
X01095Y03029D01*
X01103Y03033D01*
X01099Y03025D01*
X01103Y03017D01*
X01095Y03021D01*
X01087Y03017D01*
Y02917D02*
X01091Y02925D01*
X01087Y02933D01*
X01095Y02929D01*
X01103Y02933D01*
X01099Y02925D01*
X01103Y02917D01*
X01095Y02921D01*
X01087Y02917D01*
Y02817D02*
X01091Y02825D01*
X01087Y02833D01*
X01095Y02829D01*
X01103Y02833D01*
X01099Y02825D01*
X01103Y02817D01*
X01095Y02821D01*
X01087Y02817D01*
Y02717D02*
X01091Y02725D01*
X01087Y02733D01*
X01095Y02729D01*
X01103Y02733D01*
X01099Y02725D01*
X01103Y02717D01*
X01095Y02721D01*
X01087Y02717D01*
X01611Y01076D02*
Y01072D01*
X01619D01*
Y01076D01*
X01623D01*
Y01084D01*
X01619D01*
Y01088D01*
X01611D01*
Y01084D01*
X01607D01*
Y01076D01*
X01611D01*
X01711D02*
Y01072D01*
X01719D01*
Y01076D01*
X01723D01*
Y01084D01*
X01719D01*
Y01088D01*
X01711D01*
Y01084D01*
X01707D01*
Y01076D01*
X01711D01*
X01811D02*
Y01072D01*
X01819D01*
Y01076D01*
X01823D01*
Y01084D01*
X01819D01*
Y01088D01*
X01811D01*
Y01084D01*
X01807D01*
Y01076D01*
X01811D01*
X01911D02*
Y01072D01*
X01919D01*
Y01076D01*
X01923D01*
Y01084D01*
X01919D01*
Y01088D01*
X01911D01*
Y01084D01*
X01907D01*
Y01076D01*
X01911D01*
X02011D02*
Y01072D01*
X02019D01*
Y01076D01*
X02023D01*
Y01084D01*
X02019D01*
Y01088D01*
X02011D01*
Y01084D01*
X02007D01*
Y01076D01*
X02011D01*
X02111D02*
Y01072D01*
X02119D01*
Y01076D01*
X02123D01*
Y01084D01*
X02119D01*
Y01088D01*
X02111D01*
Y01084D01*
X02107D01*
Y01076D01*
X02111D01*
X02211D02*
Y01072D01*
X02219D01*
Y01076D01*
X02223D01*
Y01084D01*
X02219D01*
Y01088D01*
X02211D01*
Y01084D01*
X02207D01*
Y01076D01*
X02211D01*
X02311D02*
Y01072D01*
X02319D01*
Y01076D01*
X02323D01*
Y01084D01*
X02319D01*
Y01088D01*
X02311D01*
Y01084D01*
X02307D01*
Y01076D01*
X02311D01*
X02411D02*
Y01072D01*
X02419D01*
Y01076D01*
X02423D01*
Y01084D01*
X02419D01*
Y01088D01*
X02411D01*
Y01084D01*
X02407D01*
Y01076D01*
X02411D01*
X02511D02*
Y01072D01*
X02519D01*
Y01076D01*
X02523D01*
Y01084D01*
X02519D01*
Y01088D01*
X02511D01*
Y01084D01*
X02507D01*
Y01076D01*
X02511D01*
X02611D02*
Y01072D01*
X02619D01*
Y01076D01*
X02623D01*
Y01084D01*
X02619D01*
Y01088D01*
X02611D01*
Y01084D01*
X02607D01*
Y01076D01*
X02611D01*
X02711D02*
Y01072D01*
X02719D01*
Y01076D01*
X02723D01*
Y01084D01*
X02719D01*
Y01088D01*
X02711D01*
Y01084D01*
X02707D01*
Y01076D01*
X02711D01*
X02811D02*
Y01072D01*
X02819D01*
Y01076D01*
X02823D01*
Y01084D01*
X02819D01*
Y01088D01*
X02811D01*
Y01084D01*
X02807D01*
Y01076D01*
X02811D01*
X02911D02*
Y01072D01*
X02919D01*
Y01076D01*
X02923D01*
Y01084D01*
X02919D01*
Y01088D01*
X02911D01*
Y01084D01*
X02907D01*
Y01076D01*
X02911D01*
X03011D02*
Y01072D01*
X03019D01*
Y01076D01*
X03023D01*
Y01084D01*
X03019D01*
Y01088D01*
X03011D01*
Y01084D01*
X03007D01*
Y01076D01*
X03011D01*
X03111D02*
Y01072D01*
X03119D01*
Y01076D01*
X03123D01*
Y01084D01*
X03119D01*
Y01088D01*
X03111D01*
Y01084D01*
X03107D01*
Y01076D01*
X03111D01*
X03211D02*
Y01072D01*
X03219D01*
Y01076D01*
X03223D01*
Y01084D01*
X03219D01*
Y01088D01*
X03211D01*
Y01084D01*
X03207D01*
Y01076D01*
X03211D01*
X03311D02*
Y01072D01*
X03319D01*
Y01076D01*
X03323D01*
Y01084D01*
X03319D01*
Y01088D01*
X03311D01*
Y01084D01*
X03307D01*
Y01076D01*
X03311D01*
X03411D02*
Y01072D01*
X03419D01*
Y01076D01*
X03423D01*
Y01084D01*
X03419D01*
Y01088D01*
X03411D01*
Y01084D01*
X03407D01*
Y01076D01*
X03411D01*
Y02076D02*
Y02072D01*
X03419D01*
Y02076D01*
X03423D01*
Y02084D01*
X03419D01*
Y02088D01*
X03411D01*
Y02084D01*
X03407D01*
Y02076D01*
X03411D01*
X03311D02*
Y02072D01*
X03319D01*
Y02076D01*
X03323D01*
Y02084D01*
X03319D01*
Y02088D01*
X03311D01*
Y02084D01*
X03307D01*
Y02076D01*
X03311D01*
X03211D02*
Y02072D01*
X03219D01*
Y02076D01*
X03223D01*
Y02084D01*
X03219D01*
Y02088D01*
X03211D01*
Y02084D01*
X03207D01*
Y02076D01*
X03211D01*
X03111D02*
Y02072D01*
X03119D01*
Y02076D01*
X03123D01*
Y02084D01*
X03119D01*
Y02088D01*
X03111D01*
Y02084D01*
X03107D01*
Y02076D01*
X03111D01*
X03011D02*
Y02072D01*
X03019D01*
Y02076D01*
X03023D01*
Y02084D01*
X03019D01*
Y02088D01*
X03011D01*
Y02084D01*
X03007D01*
Y02076D01*
X03011D01*
X02911D02*
Y02072D01*
X02919D01*
Y02076D01*
X02923D01*
Y02084D01*
X02919D01*
Y02088D01*
X02911D01*
Y02084D01*
X02907D01*
Y02076D01*
X02911D01*
X02811D02*
Y02072D01*
X02819D01*
Y02076D01*
X02823D01*
Y02084D01*
X02819D01*
Y02088D01*
X02811D01*
Y02084D01*
X02807D01*
Y02076D01*
X02811D01*
X02711D02*
Y02072D01*
X02719D01*
Y02076D01*
X02723D01*
Y02084D01*
X02719D01*
Y02088D01*
X02711D01*
Y02084D01*
X02707D01*
Y02076D01*
X02711D01*
X02611D02*
Y02072D01*
X02619D01*
Y02076D01*
X02623D01*
Y02084D01*
X02619D01*
Y02088D01*
X02611D01*
Y02084D01*
X02607D01*
Y02076D01*
X02611D01*
X02511D02*
Y02072D01*
X02519D01*
Y02076D01*
X02523D01*
Y02084D01*
X02519D01*
Y02088D01*
X02511D01*
Y02084D01*
X02507D01*
Y02076D01*
X02511D01*
X02411D02*
Y02072D01*
X02419D01*
Y02076D01*
X02423D01*
Y02084D01*
X02419D01*
Y02088D01*
X02411D01*
Y02084D01*
X02407D01*
Y02076D01*
X02411D01*
X02311D02*
Y02072D01*
X02319D01*
Y02076D01*
X02323D01*
Y02084D01*
X02319D01*
Y02088D01*
X02311D01*
Y02084D01*
X02307D01*
Y02076D01*
X02311D01*
X02211D02*
Y02072D01*
X02219D01*
Y02076D01*
X02223D01*
Y02084D01*
X02219D01*
Y02088D01*
X02211D01*
Y02084D01*
X02207D01*
Y02076D01*
X02211D01*
X02111D02*
Y02072D01*
X02119D01*
Y02076D01*
X02123D01*
Y02084D01*
X02119D01*
Y02088D01*
X02111D01*
Y02084D01*
X02107D01*
Y02076D01*
X02111D01*
X02011D02*
Y02072D01*
X02019D01*
Y02076D01*
X02023D01*
Y02084D01*
X02019D01*
Y02088D01*
X02011D01*
Y02084D01*
X02007D01*
Y02076D01*
X02011D01*
X01911D02*
Y02072D01*
X01919D01*
Y02076D01*
X01923D01*
Y02084D01*
X01919D01*
Y02088D01*
X01911D01*
Y02084D01*
X01907D01*
Y02076D01*
X01911D01*
X01811D02*
Y02072D01*
X01819D01*
Y02076D01*
X01823D01*
Y02084D01*
X01819D01*
Y02088D01*
X01811D01*
Y02084D01*
X01807D01*
Y02076D01*
X01811D01*
X01711D02*
Y02072D01*
X01719D01*
Y02076D01*
X01723D01*
Y02084D01*
X01719D01*
Y02088D01*
X01711D01*
Y02084D01*
X01707D01*
Y02076D01*
X01711D01*
X01611D02*
Y02072D01*
X01619D01*
Y02076D01*
X01623D01*
Y02084D01*
X01619D01*
Y02088D01*
X01611D01*
Y02084D01*
X01607D01*
Y02076D01*
X01611D01*
X0116Y013812D02*
X01152Y013972D01*
X01168D01*
X0116Y013812D01*
Y017828D02*
X01152Y017988D01*
X01168D01*
X0116Y017828D01*
X05937Y01472D02*
X05941D01*
X05945Y01476D01*
X05949Y01472D01*
X05953D01*
Y01476D01*
X05949Y0148D01*
X05953Y01484D01*
Y01488D01*
X05949D01*
X05945Y01484D01*
X05941Y01488D01*
X05937D01*
Y01484D01*
X05941Y0148D01*
X05937Y01476D01*
Y01472D01*
X06667Y01435D02*
X06675Y01443D01*
X06683Y01435D01*
X06675Y01427D01*
X06667Y01435D01*
X06467Y01285D02*
X06475Y01293D01*
X06483Y01285D01*
X06475Y01277D01*
X06467Y01285D01*
Y01535D02*
X06475Y01543D01*
X06483Y01535D01*
X06475Y01527D01*
X06467Y01535D01*
X061008Y01747D02*
X060928Y01763D01*
X061088D01*
X061008Y01747D01*
X056992D02*
X056912Y01763D01*
X057072D01*
X056992Y01747D01*
D55*
X03673Y01865D02*
G03*
X03673Y01865I-00008J0D01*
G01*
X03573D02*
G03*
X03573Y01865I-00008J0D01*
G01*
X03958Y0186D02*
G03*
X03958Y0186I-00008J0D01*
G01*
X03858D02*
G03*
X03858Y0186I-00008J0D01*
G01*
X01168Y01175D02*
G03*
X01168Y01175I-00008J0D01*
G01*
Y01075D02*
G03*
X01168Y01075I-00008J0D01*
G01*
X06053Y0128D02*
G03*
X06053Y0128I-00008J0D01*
G01*
X05953D02*
G03*
X05953Y0128I-00008J0D01*
G01*
X05853D02*
G03*
X05853Y0128I-00008J0D01*
G01*
X06303Y01745D02*
G03*
X06303Y01745I-00008J0D01*
G01*
X06203D02*
G03*
X06203Y01745I-00008J0D01*
G01*
M02*
