G04*
G04 #@! TF.GenerationSoftware,Altium Limited,Altium Designer,19.0.10 (269)*
G04*
G04 Layer_Color=8388736*
%FSTAX24Y24*%
%MOIN*%
G70*
G01*
G75*
%ADD17C,0.0671*%
%ADD18C,0.0730*%
%ADD19P,0.0790X8X22.5*%
%ADD20C,0.0631*%
%ADD21C,0.0830*%
%ADD22R,0.0710X0.0710*%
%ADD23C,0.0710*%
%ADD24R,0.0678X0.0678*%
%ADD25C,0.0678*%
%ADD26R,0.0710X0.0710*%
%ADD27R,0.0682X0.0682*%
%ADD28C,0.0682*%
%ADD29P,0.0790X8X112.5*%
G04:AMPARAMS|DCode=30|XSize=78mil|YSize=98mil|CornerRadius=0mil|HoleSize=0mil|Usage=FLASHONLY|Rotation=0.000|XOffset=0mil|YOffset=0mil|HoleType=Round|Shape=Octagon|*
%AMOCTAGOND30*
4,1,8,-0.0195,0.0490,0.0195,0.0490,0.0390,0.0295,0.0390,-0.0295,0.0195,-0.0490,-0.0195,-0.0490,-0.0390,-0.0295,-0.0390,0.0295,-0.0195,0.0490,0.0*
%
%ADD30OCTAGOND30*%

%ADD31C,0.1080*%
%ADD32R,0.1080X0.1680*%
%ADD33R,0.1680X0.1080*%
D17*
X0606Y0107D02*
D03*
X0616D02*
D03*
X05885D02*
D03*
X05785D02*
D03*
X0396Y0123D02*
D03*
Y0113D02*
D03*
X0451Y01215D02*
D03*
Y01115D02*
D03*
D18*
X03665Y01865D02*
D03*
X0395Y0186D02*
D03*
X0116Y01175D02*
D03*
X06295Y01745D02*
D03*
D19*
X03565Y01865D02*
D03*
X0385Y0186D02*
D03*
X06195Y01745D02*
D03*
D20*
X044808Y01475D02*
D03*
X040792D02*
D03*
X044808Y0165D02*
D03*
X040792D02*
D03*
X039758D02*
D03*
X035742D02*
D03*
X035692Y01475D02*
D03*
X039708D02*
D03*
X0116Y013892D02*
D03*
Y017908D02*
D03*
X061008Y01755D02*
D03*
X056992D02*
D03*
D21*
X036Y01295D02*
D03*
X0385Y01095D02*
D03*
Y01295D02*
D03*
X036Y01095D02*
D03*
X04135Y01295D02*
D03*
X04385Y01095D02*
D03*
Y01295D02*
D03*
X04135Y01095D02*
D03*
D22*
X05395Y0208D02*
D03*
D23*
X05295D02*
D03*
X05195D02*
D03*
X05095D02*
D03*
X04995D02*
D03*
X04895D02*
D03*
X01095Y03125D02*
D03*
Y03025D02*
D03*
Y02925D02*
D03*
Y02825D02*
D03*
D24*
X04115Y0205D02*
D03*
D25*
Y0195D02*
D03*
Y0185D02*
D03*
D26*
X01095Y02725D02*
D03*
D27*
X01615Y0108D02*
D03*
D28*
X01715D02*
D03*
X01815D02*
D03*
X01915D02*
D03*
X02015D02*
D03*
X02115D02*
D03*
X02215D02*
D03*
X02315D02*
D03*
X02415D02*
D03*
X02515D02*
D03*
X02615D02*
D03*
X02715D02*
D03*
X02815D02*
D03*
X02915D02*
D03*
X03015D02*
D03*
X03115D02*
D03*
X03215D02*
D03*
X03315D02*
D03*
X03415D02*
D03*
Y0208D02*
D03*
X03315D02*
D03*
X03215D02*
D03*
X03115D02*
D03*
X03015D02*
D03*
X02915D02*
D03*
X02815D02*
D03*
X02715D02*
D03*
X02615D02*
D03*
X02515D02*
D03*
X02415D02*
D03*
X02315D02*
D03*
X02215D02*
D03*
X02115D02*
D03*
X02015D02*
D03*
X01915D02*
D03*
X01815D02*
D03*
X01715D02*
D03*
X01615D02*
D03*
D29*
X0116Y01075D02*
D03*
D30*
X06045Y0128D02*
D03*
X05945D02*
D03*
X05845D02*
D03*
D31*
X05945Y0148D02*
D03*
D32*
X06675Y01435D02*
D03*
D33*
X06475Y01285D02*
D03*
Y01535D02*
D03*
M02*
