G04*
G04 #@! TF.GenerationSoftware,Altium Limited,Altium Designer,19.0.10 (269)*
G04*
G04 Layer_Physical_Order=1*
G04 Layer_Color=255*
%FSTAX24Y24*%
%MOIN*%
G70*
G01*
G75*
%ADD10C,0.0100*%
%ADD34C,0.0500*%
%ADD35C,0.0200*%
%ADD36C,0.0591*%
%ADD37C,0.0650*%
%ADD38P,0.0704X8X22.5*%
%ADD39C,0.0551*%
%ADD40C,0.0750*%
%ADD41R,0.0630X0.0630*%
%ADD42C,0.0630*%
%ADD43R,0.0598X0.0598*%
%ADD44C,0.0598*%
%ADD45R,0.0630X0.0630*%
%ADD46R,0.0602X0.0602*%
%ADD47C,0.0602*%
%ADD48P,0.0704X8X112.5*%
G04:AMPARAMS|DCode=49|XSize=70mil|YSize=90mil|CornerRadius=0mil|HoleSize=0mil|Usage=FLASHONLY|Rotation=0.000|XOffset=0mil|YOffset=0mil|HoleType=Round|Shape=Octagon|*
%AMOCTAGOND49*
4,1,8,-0.0175,0.0450,0.0175,0.0450,0.0350,0.0275,0.0350,-0.0275,0.0175,-0.0450,-0.0175,-0.0450,-0.0350,-0.0275,-0.0350,0.0275,-0.0175,0.0450,0.0*
%
%ADD49OCTAGOND49*%

%ADD50C,0.1000*%
%ADD51R,0.1000X0.1600*%
%ADD52R,0.1600X0.1000*%
G36*
X045084Y014709D02*
X045089Y014639D01*
X045093Y014608D01*
X0451Y01458D01*
X045107Y014554D01*
X045116Y014531D01*
X045127Y01451D01*
X045138Y014492D01*
X045152Y014477D01*
X045081Y014406D01*
X045066Y014419D01*
X045048Y014431D01*
X045027Y014442D01*
X045004Y014451D01*
X044978Y014458D01*
X04495Y014464D01*
X044919Y014469D01*
X044885Y014472D01*
X044811Y014474D01*
X045083Y014747D01*
X045084Y014709D01*
D02*
G37*
G36*
X039026Y011186D02*
X039007Y011165D01*
X038988Y011141D01*
X03897Y011115D01*
X038953Y011085D01*
X038936Y011053D01*
X038904Y010979D01*
X038889Y010939D01*
X038861Y010848D01*
X038609Y011309D01*
X038648Y011299D01*
X038685Y011292D01*
X038721Y011289D01*
X038755Y01129D01*
X038787Y011294D01*
X038819Y011302D01*
X038848Y011314D01*
X038876Y011329D01*
X038903Y011348D01*
X038928Y011371D01*
X039026Y011186D01*
D02*
G37*
G36*
X045466Y011446D02*
X045452Y01143D01*
X04544Y011411D01*
X045429Y011389D01*
X04542Y011364D01*
X045412Y011336D01*
X045406Y011305D01*
X045401Y011271D01*
X045396Y011195D01*
X045395Y011153D01*
X045286Y011262D01*
X045212Y011177D01*
X045206Y011166D01*
X045201Y011157D01*
X0452Y01115D01*
X0451Y01125D01*
X045107Y011251D01*
X045116Y011256D01*
X045127Y011262D01*
X045141Y011272D01*
X045174Y0113D01*
X045213Y011336D01*
X045103Y011445D01*
X045145Y011446D01*
X045221Y011451D01*
X045255Y011456D01*
X045286Y011462D01*
X045314Y01147D01*
X045339Y011479D01*
X045361Y01149D01*
X04538Y011502D01*
X045396Y011516D01*
X045466Y011446D01*
D02*
G37*
G36*
X039389Y011093D02*
X039368Y011114D01*
X039346Y011132D01*
X039323Y011148D01*
X0393Y011162D01*
X039276Y011173D01*
X039251Y011183D01*
X039226Y01119D01*
X039199Y011196D01*
X039173Y011199D01*
X039145Y0112D01*
Y0114D01*
X039173Y011401D01*
X039199Y011404D01*
X039226Y01141D01*
X039251Y011417D01*
X039276Y011427D01*
X0393Y011438D01*
X039323Y011452D01*
X039346Y011468D01*
X039368Y011486D01*
X039389Y011507D01*
Y011093D01*
D02*
G37*
G36*
X035597Y011348D02*
X035624Y011329D01*
X035652Y011314D01*
X035681Y011302D01*
X035713Y011294D01*
X035745Y01129D01*
X035779Y011289D01*
X035815Y011292D01*
X035852Y011299D01*
X035891Y011309D01*
X035639Y010848D01*
X035625Y010895D01*
X03558Y011018D01*
X035564Y011053D01*
X03553Y011115D01*
X035512Y011141D01*
X035493Y011165D01*
X035474Y011186D01*
X035572Y011371D01*
X035597Y011348D01*
D02*
G37*
G36*
X030549Y011058D02*
X03053Y011037D01*
X030514Y011016D01*
X030499Y010993D01*
X030486Y010969D01*
X030475Y010944D01*
X030466Y010918D01*
X030459Y010891D01*
X030455Y010863D01*
X030452Y010833D01*
X030451Y010803D01*
X030153Y011101D01*
X030183Y011102D01*
X030213Y011105D01*
X030241Y011109D01*
X030268Y011116D01*
X030294Y011125D01*
X030319Y011136D01*
X030343Y011149D01*
X030366Y011164D01*
X030387Y01118D01*
X030408Y011199D01*
X030549Y011058D01*
D02*
G37*
G36*
X067496Y010154D02*
X040908D01*
X040889Y0102D01*
X041098Y01041D01*
X041112Y01042D01*
X041132Y010432D01*
X041154Y010442D01*
X041179Y010452D01*
X041207Y010459D01*
X041237Y010465D01*
X04127Y01047D01*
X041306Y010472D01*
X041335Y010473D01*
X04135Y010471D01*
X041474Y010487D01*
X04159Y010535D01*
X041689Y010611D01*
X041698Y010623D01*
X041719Y010643D01*
X041746Y010667D01*
X041773Y010687D01*
X041798Y010704D01*
X041823Y010718D01*
X041847Y010729D01*
X041871Y010738D01*
X041893Y010743D01*
X04191Y010746D01*
X04329D01*
X043307Y010743D01*
X043329Y010738D01*
X043353Y010729D01*
X043377Y010718D01*
X043402Y010704D01*
X043427Y010687D01*
X043454Y010667D01*
X043481Y010643D01*
X043502Y010623D01*
X043511Y010611D01*
X04361Y010535D01*
X043726Y010487D01*
X04385Y010471D01*
X043974Y010487D01*
X04409Y010535D01*
X044189Y010611D01*
X044198Y010623D01*
X044219Y010643D01*
X044246Y010667D01*
X044273Y010687D01*
X044298Y010704D01*
X044323Y010718D01*
X044347Y010729D01*
X044371Y010738D01*
X044393Y010743D01*
X04441Y010746D01*
X044794D01*
X044872Y010762D01*
X044923Y010795D01*
X044997Y010765D01*
X0451Y010751D01*
X045203Y010765D01*
X045299Y010805D01*
X045382Y010868D01*
X045445Y010951D01*
X045485Y011047D01*
X045499Y01115D01*
X045497Y011161D01*
X045498Y011192D01*
X045502Y011261D01*
X045506Y011287D01*
X045511Y011312D01*
X045517Y011332D01*
X045523Y011348D01*
X045529Y01136D01*
X045534Y011367D01*
X045698Y011532D01*
X045731Y011581D01*
X045743Y01164D01*
Y013968D01*
X045731Y014026D01*
X045698Y014076D01*
X045219Y014555D01*
X045215Y014562D01*
X045209Y014572D01*
X045204Y014587D01*
X045198Y014605D01*
X045194Y014626D01*
X04519Y01465D01*
X045186Y014713D01*
X045185Y014741D01*
X045187Y01475D01*
X045174Y014848D01*
X045136Y014939D01*
X045076Y015018D01*
X044997Y015078D01*
X044906Y015116D01*
X044808Y015129D01*
X04471Y015116D01*
X044618Y015078D01*
X04454Y015018D01*
X04448Y014939D01*
X044442Y014848D01*
X044429Y01475D01*
X044442Y014652D01*
X04448Y014561D01*
X04454Y014482D01*
X044618Y014422D01*
X04471Y014384D01*
X044808Y014371D01*
X044816Y014372D01*
X044879Y014371D01*
X044907Y014368D01*
X044932Y014364D01*
X044953Y014359D01*
X044971Y014354D01*
X044986Y014349D01*
X044996Y014343D01*
X045003Y014339D01*
X045437Y013905D01*
Y012438D01*
X04539Y012422D01*
X045382Y012432D01*
X045299Y012495D01*
X045203Y012535D01*
X04515Y012542D01*
Y01215D01*
Y011758D01*
X045203Y011765D01*
X045299Y011805D01*
X045382Y011868D01*
X04539Y011878D01*
X045437Y011862D01*
Y011703D01*
X045317Y011584D01*
X04531Y011579D01*
X045298Y011573D01*
X045282Y011567D01*
X045262Y011561D01*
X045237Y011556D01*
X045211Y011552D01*
X045142Y011548D01*
X045111Y011547D01*
X0451Y011549D01*
X044997Y011535D01*
X044901Y011495D01*
X044818Y011432D01*
X044755Y011349D01*
X044715Y011253D01*
X044702Y011154D01*
X04441D01*
X044393Y011157D01*
X044371Y011162D01*
X044347Y011171D01*
X044323Y011182D01*
X044298Y011196D01*
X044273Y011213D01*
X044246Y011233D01*
X044219Y011257D01*
X044198Y011277D01*
X044189Y011289D01*
X04409Y011365D01*
X043974Y011413D01*
X04385Y011429D01*
X043726Y011413D01*
X04361Y011365D01*
X043511Y011289D01*
X043502Y011277D01*
X043481Y011257D01*
X043454Y011233D01*
X043427Y011213D01*
X043402Y011196D01*
X043377Y011182D01*
X043353Y011171D01*
X043329Y011162D01*
X043307Y011157D01*
X04329Y011154D01*
X04191D01*
X041893Y011157D01*
X041871Y011162D01*
X041847Y011171D01*
X041823Y011182D01*
X041798Y011196D01*
X041773Y011213D01*
X041746Y011233D01*
X041719Y011257D01*
X041698Y011277D01*
X041689Y011289D01*
X04159Y011365D01*
X041474Y011413D01*
X04135Y011429D01*
X041226Y011413D01*
X04111Y011365D01*
X041011Y011289D01*
X040935Y01119D01*
X040887Y011074D01*
X040871Y01095D01*
X040873Y010935D01*
X040872Y010906D01*
X04087Y01087D01*
X040865Y010837D01*
X040859Y010807D01*
X040852Y010779D01*
X040842Y010754D01*
X040832Y010732D01*
X04082Y010712D01*
X04081Y010698D01*
X040566Y010454D01*
X038674D01*
X038664Y010504D01*
X03874Y010535D01*
X038839Y010611D01*
X038915Y01071D01*
X038963Y010826D01*
X038964Y010837D01*
X038986Y010906D01*
X038999Y010942D01*
X039028Y011009D01*
X039042Y011036D01*
X039056Y01106D01*
X039071Y011081D01*
X03908Y011092D01*
X039083Y011096D01*
X039174D01*
X039183Y011095D01*
X039201Y011091D01*
X039218Y011086D01*
X039235Y01108D01*
X039251Y011072D01*
X039268Y011062D01*
X039284Y011051D01*
X0393Y011037D01*
X039312Y011026D01*
X039318Y011018D01*
X039401Y010955D01*
X039497Y010915D01*
X0396Y010901D01*
X039703Y010915D01*
X039799Y010955D01*
X039882Y011018D01*
X039945Y011101D01*
X039985Y011197D01*
X039999Y0113D01*
X039985Y011403D01*
X039945Y011499D01*
X039882Y011582D01*
X039799Y011645D01*
X039703Y011685D01*
X0396Y011699D01*
X039497Y011685D01*
X039401Y011645D01*
X039318Y011582D01*
X039312Y011574D01*
X0393Y011563D01*
X039284Y011549D01*
X039268Y011538D01*
X039251Y011528D01*
X039235Y01152D01*
X039218Y011514D01*
X039201Y011509D01*
X039183Y011505D01*
X039174Y011504D01*
X038999D01*
X038921Y011488D01*
X038855Y011444D01*
X038836Y011426D01*
X038822Y011416D01*
X038805Y011407D01*
X038787Y0114D01*
X038768Y011395D01*
X038747Y011392D01*
X038724Y011391D01*
X038698Y011393D01*
X038669Y011398D01*
X03864Y011406D01*
X038624Y011413D01*
X0385Y011429D01*
X038376Y011413D01*
X03826Y011365D01*
X038161Y011289D01*
X038152Y011277D01*
X038131Y011257D01*
X038104Y011233D01*
X038077Y011213D01*
X038052Y011196D01*
X038027Y011182D01*
X038003Y011171D01*
X037979Y011162D01*
X037957Y011157D01*
X03794Y011154D01*
X03656D01*
X036543Y011157D01*
X036521Y011162D01*
X036497Y011171D01*
X036473Y011182D01*
X036448Y011196D01*
X036423Y011213D01*
X036396Y011233D01*
X036369Y011257D01*
X036348Y011277D01*
X036339Y011289D01*
X03624Y011365D01*
X036124Y011413D01*
X036Y011429D01*
X035876Y011413D01*
X03586Y011406D01*
X035831Y011398D01*
X035802Y011393D01*
X035776Y011391D01*
X035753Y011392D01*
X035732Y011395D01*
X035713Y0114D01*
X035695Y011407D01*
X035678Y011416D01*
X035664Y011426D01*
X035644Y011445D01*
X035578Y01149D01*
X0355Y011505D01*
X030651D01*
X030573Y01149D01*
X030507Y011445D01*
X030314Y011253D01*
X030306Y011246D01*
X030291Y011236D01*
X030275Y011228D01*
X030258Y01122D01*
X03024Y011214D01*
X03022Y011209D01*
X0302Y011206D01*
X030178Y011204D01*
X03016Y011203D01*
X03015Y011205D01*
X030045Y011191D01*
X029948Y01115D01*
X029864Y011086D01*
X0298Y011002D01*
X029759Y010905D01*
X029745Y0108D01*
X029759Y010695D01*
X0298Y010598D01*
X029864Y010514D01*
X02988Y010501D01*
X029864Y010454D01*
X029436D01*
X02942Y010501D01*
X029436Y010514D01*
X0295Y010598D01*
X029541Y010695D01*
X029548Y01075D01*
X02915D01*
X028752D01*
X028759Y010695D01*
X0288Y010598D01*
X028864Y010514D01*
X02888Y010501D01*
X028864Y010454D01*
X028436D01*
X02842Y010501D01*
X028436Y010514D01*
X0285Y010598D01*
X028541Y010695D01*
X028555Y0108D01*
X028541Y010905D01*
X0285Y011002D01*
X028436Y011086D01*
X028352Y01115D01*
X028255Y011191D01*
X02815Y011205D01*
X028045Y011191D01*
X027948Y01115D01*
X027864Y011086D01*
X0278Y011002D01*
X027759Y010905D01*
X027745Y0108D01*
X027759Y010695D01*
X0278Y010598D01*
X027864Y010514D01*
X02788Y010501D01*
X027864Y010454D01*
X027784D01*
X027603Y010636D01*
X027596Y010644D01*
X027586Y010659D01*
X027578Y010675D01*
X02757Y010692D01*
X027564Y01071D01*
X027559Y01073D01*
X027556Y01075D01*
X027554Y010772D01*
X027553Y01079D01*
X027555Y0108D01*
X027541Y010905D01*
X0275Y011002D01*
X027436Y011086D01*
X027352Y01115D01*
X027255Y011191D01*
X02715Y011205D01*
X027045Y011191D01*
X026948Y01115D01*
X026864Y011086D01*
X0268Y011002D01*
X026759Y010905D01*
X026745Y0108D01*
X026759Y010695D01*
X0268Y010598D01*
X026864Y010514D01*
X026948Y01045D01*
X027045Y010409D01*
X02715Y010395D01*
X02716Y010397D01*
X027178Y010396D01*
X0272Y010394D01*
X02722Y010391D01*
X02724Y010386D01*
X027258Y01038D01*
X027275Y010372D01*
X027291Y010364D01*
X027306Y010354D01*
X027314Y010347D01*
X027462Y0102D01*
X027442Y010154D01*
X010204D01*
Y034046D01*
X067496D01*
Y010154D01*
D02*
G37*
G36*
X04415Y011182D02*
X044182Y011154D01*
X044213Y01113D01*
X044245Y011108D01*
X044277Y011091D01*
X044309Y011076D01*
X044341Y011065D01*
X044373Y011056D01*
X044405Y011052D01*
X044436Y01105D01*
Y01085D01*
X044405Y010848D01*
X044373Y010843D01*
X044341Y010835D01*
X044309Y010824D01*
X044277Y010809D01*
X044245Y010791D01*
X044213Y01077D01*
X044182Y010746D01*
X04415Y010718D01*
X044118Y010688D01*
Y011213D01*
X04415Y011182D01*
D02*
G37*
G36*
X043582Y010688D02*
X04355Y010718D01*
X043518Y010746D01*
X043487Y01077D01*
X043455Y010791D01*
X043423Y010809D01*
X043391Y010824D01*
X043359Y010835D01*
X043327Y010843D01*
X043295Y010848D01*
X043264Y01085D01*
Y01105D01*
X043295Y011052D01*
X043327Y011056D01*
X043359Y011065D01*
X043391Y011076D01*
X043423Y011091D01*
X043455Y011108D01*
X043487Y01113D01*
X043518Y011154D01*
X04355Y011182D01*
X043582Y011213D01*
Y010688D01*
D02*
G37*
G36*
X04165Y011182D02*
X041682Y011154D01*
X041713Y01113D01*
X041745Y011108D01*
X041777Y011091D01*
X041809Y011076D01*
X041841Y011065D01*
X041873Y011056D01*
X041905Y011052D01*
X041936Y01105D01*
Y01085D01*
X041905Y010848D01*
X041873Y010843D01*
X041841Y010835D01*
X041809Y010824D01*
X041777Y010809D01*
X041745Y010791D01*
X041713Y01077D01*
X041682Y010746D01*
X04165Y010718D01*
X041618Y010688D01*
Y011213D01*
X04165Y011182D01*
D02*
G37*
G36*
X038232Y010688D02*
X0382Y010718D01*
X038168Y010746D01*
X038137Y01077D01*
X038105Y010791D01*
X038073Y010809D01*
X038041Y010824D01*
X038009Y010835D01*
X037977Y010843D01*
X037945Y010848D01*
X037914Y01085D01*
Y01105D01*
X037945Y011052D01*
X037977Y011056D01*
X038009Y011065D01*
X038041Y011076D01*
X038073Y011091D01*
X038105Y011108D01*
X038137Y01113D01*
X038168Y011154D01*
X0382Y011182D01*
X038232Y011213D01*
Y010688D01*
D02*
G37*
G36*
X0363Y011182D02*
X036332Y011154D01*
X036363Y01113D01*
X036395Y011108D01*
X036427Y011091D01*
X036459Y011076D01*
X036491Y011065D01*
X036523Y011056D01*
X036555Y011052D01*
X036586Y01105D01*
Y01085D01*
X036555Y010848D01*
X036523Y010843D01*
X036491Y010835D01*
X036459Y010824D01*
X036427Y010809D01*
X036395Y010791D01*
X036363Y01077D01*
X036332Y010746D01*
X0363Y010718D01*
X036268Y010688D01*
Y011213D01*
X0363Y011182D01*
D02*
G37*
G36*
X041346Y010575D02*
X041302Y010574D01*
X04126Y010571D01*
X04122Y010566D01*
X041183Y010558D01*
X041147Y010549D01*
X041115Y010536D01*
X041084Y010522D01*
X041056Y010505D01*
X04103Y010486D01*
X041006Y010465D01*
X040865Y010606D01*
X040886Y01063D01*
X040905Y010656D01*
X040922Y010684D01*
X040936Y010715D01*
X040949Y010747D01*
X040958Y010783D01*
X040966Y01082D01*
X040971Y01086D01*
X040974Y010902D01*
X040975Y010946D01*
X041346Y010575D01*
D02*
G37*
G36*
X027452Y010767D02*
X027455Y010737D01*
X027459Y010709D01*
X027466Y010682D01*
X027475Y010656D01*
X027486Y010631D01*
X027499Y010607D01*
X027514Y010584D01*
X02753Y010563D01*
X027549Y010542D01*
X027408Y010401D01*
X027387Y01042D01*
X027366Y010436D01*
X027343Y010451D01*
X027319Y010464D01*
X027294Y010475D01*
X027268Y010484D01*
X027241Y010491D01*
X027213Y010495D01*
X027183Y010498D01*
X027153Y010499D01*
X027451Y010797D01*
X027452Y010767D01*
D02*
G37*
%LPC*%
G36*
X01095Y031669D02*
X010842Y031654D01*
X010741Y031612D01*
X010654Y031546D01*
X010588Y031459D01*
X010546Y031358D01*
X010531Y03125D01*
X010546Y031142D01*
X010588Y031041D01*
X010654Y030954D01*
X010741Y030888D01*
X010842Y030846D01*
X01095Y030831D01*
X011058Y030846D01*
X011159Y030888D01*
X011246Y030954D01*
X011312Y031041D01*
X011354Y031142D01*
X011369Y03125D01*
X011354Y031358D01*
X011312Y031459D01*
X011246Y031546D01*
X011159Y031612D01*
X011058Y031654D01*
X01095Y031669D01*
D02*
G37*
G36*
Y030669D02*
X010842Y030654D01*
X010741Y030612D01*
X010654Y030546D01*
X010588Y030459D01*
X010546Y030358D01*
X010531Y03025D01*
X010546Y030142D01*
X010588Y030041D01*
X010654Y029954D01*
X010741Y029888D01*
X010842Y029846D01*
X01095Y029831D01*
X011058Y029846D01*
X011159Y029888D01*
X011246Y029954D01*
X011312Y030041D01*
X011354Y030142D01*
X011369Y03025D01*
X011354Y030358D01*
X011312Y030459D01*
X011246Y030546D01*
X011159Y030612D01*
X011058Y030654D01*
X01095Y030669D01*
D02*
G37*
G36*
Y029669D02*
X010842Y029654D01*
X010741Y029612D01*
X010654Y029546D01*
X010588Y029459D01*
X010546Y029358D01*
X010531Y02925D01*
X010546Y029142D01*
X010588Y029041D01*
X010654Y028954D01*
X010741Y028888D01*
X010842Y028846D01*
X01095Y028831D01*
X011058Y028846D01*
X011159Y028888D01*
X011246Y028954D01*
X011312Y029041D01*
X011354Y029142D01*
X011369Y02925D01*
X011354Y029358D01*
X011312Y029459D01*
X011246Y029546D01*
X011159Y029612D01*
X011058Y029654D01*
X01095Y029669D01*
D02*
G37*
G36*
X011Y028662D02*
Y0283D01*
X011362D01*
X011354Y028358D01*
X011312Y028459D01*
X011246Y028546D01*
X011159Y028612D01*
X011058Y028654D01*
X011Y028662D01*
D02*
G37*
G36*
X0109D02*
X010842Y028654D01*
X010741Y028612D01*
X010654Y028546D01*
X010588Y028459D01*
X010546Y028358D01*
X010538Y0283D01*
X0109D01*
Y028662D01*
D02*
G37*
G36*
X011362Y0282D02*
X011D01*
Y027838D01*
X011058Y027846D01*
X011159Y027888D01*
X011246Y027954D01*
X011312Y028041D01*
X011354Y028142D01*
X011362Y0282D01*
D02*
G37*
G36*
X0109D02*
X010538D01*
X010546Y028142D01*
X010588Y028041D01*
X010654Y027954D01*
X010741Y027888D01*
X010842Y027846D01*
X0109Y027838D01*
Y0282D01*
D02*
G37*
G36*
X054365Y021215D02*
X054D01*
Y02085D01*
X054365D01*
Y021215D01*
D02*
G37*
G36*
X0222Y021198D02*
Y02085D01*
X022548D01*
X022541Y020905D01*
X0225Y021002D01*
X022436Y021086D01*
X022352Y02115D01*
X022255Y021191D01*
X0222Y021198D01*
D02*
G37*
G36*
X0162D02*
Y02085D01*
X016548D01*
X016541Y020905D01*
X0165Y021002D01*
X016436Y021086D01*
X016352Y02115D01*
X016255Y021191D01*
X0162Y021198D01*
D02*
G37*
G36*
X0221D02*
X022045Y021191D01*
X021948Y02115D01*
X021864Y021086D01*
X0218Y021002D01*
X021759Y020905D01*
X021752Y02085D01*
X0221D01*
Y021198D01*
D02*
G37*
G36*
X0161D02*
X016045Y021191D01*
X015948Y02115D01*
X015864Y021086D01*
X0158Y021002D01*
X015759Y020905D01*
X015752Y02085D01*
X0161D01*
Y021198D01*
D02*
G37*
G36*
X0539Y021215D02*
X053535D01*
Y02085D01*
X0539D01*
Y021215D01*
D02*
G37*
G36*
X022548Y02075D02*
X0222D01*
Y020402D01*
X022255Y020409D01*
X022352Y02045D01*
X022436Y020514D01*
X0225Y020598D01*
X022541Y020695D01*
X022548Y02075D01*
D02*
G37*
G36*
X016548D02*
X0162D01*
Y020402D01*
X016255Y020409D01*
X016352Y02045D01*
X016436Y020514D01*
X0165Y020598D01*
X016541Y020695D01*
X016548Y02075D01*
D02*
G37*
G36*
X0221D02*
X021752D01*
X021759Y020695D01*
X0218Y020598D01*
X021864Y020514D01*
X021948Y02045D01*
X022045Y020409D01*
X0221Y020402D01*
Y02075D01*
D02*
G37*
G36*
X0161D02*
X015752D01*
X015759Y020695D01*
X0158Y020598D01*
X015864Y020514D01*
X015948Y02045D01*
X016045Y020409D01*
X0161Y020402D01*
Y02075D01*
D02*
G37*
G36*
X03415Y021205D02*
X034045Y021191D01*
X033948Y02115D01*
X033864Y021086D01*
X0338Y021002D01*
X033759Y020905D01*
X033745Y0208D01*
X033759Y020695D01*
X0338Y020598D01*
X033864Y020514D01*
X033948Y02045D01*
X034045Y020409D01*
X03415Y020395D01*
X034255Y020409D01*
X034352Y02045D01*
X034436Y020514D01*
X0345Y020598D01*
X034541Y020695D01*
X034555Y0208D01*
X034541Y020905D01*
X0345Y021002D01*
X034436Y021086D01*
X034352Y02115D01*
X034255Y021191D01*
X03415Y021205D01*
D02*
G37*
G36*
X03315D02*
X033045Y021191D01*
X032948Y02115D01*
X032864Y021086D01*
X0328Y021002D01*
X032759Y020905D01*
X032745Y0208D01*
X032759Y020695D01*
X0328Y020598D01*
X032864Y020514D01*
X032948Y02045D01*
X033045Y020409D01*
X03315Y020395D01*
X033255Y020409D01*
X033352Y02045D01*
X033436Y020514D01*
X0335Y020598D01*
X033541Y020695D01*
X033555Y0208D01*
X033541Y020905D01*
X0335Y021002D01*
X033436Y021086D01*
X033352Y02115D01*
X033255Y021191D01*
X03315Y021205D01*
D02*
G37*
G36*
X03215D02*
X032045Y021191D01*
X031948Y02115D01*
X031864Y021086D01*
X0318Y021002D01*
X031759Y020905D01*
X031745Y0208D01*
X031759Y020695D01*
X0318Y020598D01*
X031864Y020514D01*
X031948Y02045D01*
X032045Y020409D01*
X03215Y020395D01*
X032255Y020409D01*
X032352Y02045D01*
X032436Y020514D01*
X0325Y020598D01*
X032541Y020695D01*
X032555Y0208D01*
X032541Y020905D01*
X0325Y021002D01*
X032436Y021086D01*
X032352Y02115D01*
X032255Y021191D01*
X03215Y021205D01*
D02*
G37*
G36*
X02915D02*
X029045Y021191D01*
X028948Y02115D01*
X028864Y021086D01*
X0288Y021002D01*
X028759Y020905D01*
X028745Y0208D01*
X028759Y020695D01*
X0288Y020598D01*
X028864Y020514D01*
X028948Y02045D01*
X029045Y020409D01*
X02915Y020395D01*
X029255Y020409D01*
X029352Y02045D01*
X029436Y020514D01*
X0295Y020598D01*
X029541Y020695D01*
X029555Y0208D01*
X029541Y020905D01*
X0295Y021002D01*
X029436Y021086D01*
X029352Y02115D01*
X029255Y021191D01*
X02915Y021205D01*
D02*
G37*
G36*
X02815D02*
X028045Y021191D01*
X027948Y02115D01*
X027864Y021086D01*
X0278Y021002D01*
X027759Y020905D01*
X027745Y0208D01*
X027759Y020695D01*
X0278Y020598D01*
X027864Y020514D01*
X027948Y02045D01*
X028045Y020409D01*
X02815Y020395D01*
X028255Y020409D01*
X028352Y02045D01*
X028436Y020514D01*
X0285Y020598D01*
X028541Y020695D01*
X028555Y0208D01*
X028541Y020905D01*
X0285Y021002D01*
X028436Y021086D01*
X028352Y02115D01*
X028255Y021191D01*
X02815Y021205D01*
D02*
G37*
G36*
X02715D02*
X027045Y021191D01*
X026948Y02115D01*
X026864Y021086D01*
X0268Y021002D01*
X026759Y020905D01*
X026745Y0208D01*
X026759Y020695D01*
X0268Y020598D01*
X026864Y020514D01*
X026948Y02045D01*
X027045Y020409D01*
X02715Y020395D01*
X027255Y020409D01*
X027352Y02045D01*
X027436Y020514D01*
X0275Y020598D01*
X027541Y020695D01*
X027555Y0208D01*
X027541Y020905D01*
X0275Y021002D01*
X027436Y021086D01*
X027352Y02115D01*
X027255Y021191D01*
X02715Y021205D01*
D02*
G37*
G36*
X02615D02*
X026045Y021191D01*
X025948Y02115D01*
X025864Y021086D01*
X0258Y021002D01*
X025759Y020905D01*
X025745Y0208D01*
X025759Y020695D01*
X0258Y020598D01*
X025864Y020514D01*
X025948Y02045D01*
X026045Y020409D01*
X02615Y020395D01*
X026255Y020409D01*
X026352Y02045D01*
X026436Y020514D01*
X0265Y020598D01*
X026541Y020695D01*
X026555Y0208D01*
X026541Y020905D01*
X0265Y021002D01*
X026436Y021086D01*
X026352Y02115D01*
X026255Y021191D01*
X02615Y021205D01*
D02*
G37*
G36*
X02515D02*
X025045Y021191D01*
X024948Y02115D01*
X024864Y021086D01*
X0248Y021002D01*
X024759Y020905D01*
X024745Y0208D01*
X024759Y020695D01*
X0248Y020598D01*
X024864Y020514D01*
X024948Y02045D01*
X025045Y020409D01*
X02515Y020395D01*
X025255Y020409D01*
X025352Y02045D01*
X025436Y020514D01*
X0255Y020598D01*
X025541Y020695D01*
X025555Y0208D01*
X025541Y020905D01*
X0255Y021002D01*
X025436Y021086D01*
X025352Y02115D01*
X025255Y021191D01*
X02515Y021205D01*
D02*
G37*
G36*
X02415D02*
X024045Y021191D01*
X023948Y02115D01*
X023864Y021086D01*
X0238Y021002D01*
X023759Y020905D01*
X023745Y0208D01*
X023759Y020695D01*
X0238Y020598D01*
X023864Y020514D01*
X023948Y02045D01*
X024045Y020409D01*
X02415Y020395D01*
X024255Y020409D01*
X024352Y02045D01*
X024436Y020514D01*
X0245Y020598D01*
X024541Y020695D01*
X024555Y0208D01*
X024541Y020905D01*
X0245Y021002D01*
X024436Y021086D01*
X024352Y02115D01*
X024255Y021191D01*
X02415Y021205D01*
D02*
G37*
G36*
X02315D02*
X023045Y021191D01*
X022948Y02115D01*
X022864Y021086D01*
X0228Y021002D01*
X022759Y020905D01*
X022745Y0208D01*
X022759Y020695D01*
X0228Y020598D01*
X022864Y020514D01*
X022948Y02045D01*
X023045Y020409D01*
X02315Y020395D01*
X023255Y020409D01*
X023352Y02045D01*
X023436Y020514D01*
X0235Y020598D01*
X023541Y020695D01*
X023555Y0208D01*
X023541Y020905D01*
X0235Y021002D01*
X023436Y021086D01*
X023352Y02115D01*
X023255Y021191D01*
X02315Y021205D01*
D02*
G37*
G36*
X02015D02*
X020045Y021191D01*
X019948Y02115D01*
X019864Y021086D01*
X0198Y021002D01*
X019759Y020905D01*
X019745Y0208D01*
X019759Y020695D01*
X0198Y020598D01*
X019864Y020514D01*
X019948Y02045D01*
X020045Y020409D01*
X02015Y020395D01*
X020255Y020409D01*
X020352Y02045D01*
X020436Y020514D01*
X0205Y020598D01*
X020541Y020695D01*
X020555Y0208D01*
X020541Y020905D01*
X0205Y021002D01*
X020436Y021086D01*
X020352Y02115D01*
X020255Y021191D01*
X02015Y021205D01*
D02*
G37*
G36*
X01915D02*
X019045Y021191D01*
X018948Y02115D01*
X018864Y021086D01*
X0188Y021002D01*
X018759Y020905D01*
X018745Y0208D01*
X018759Y020695D01*
X0188Y020598D01*
X018864Y020514D01*
X018948Y02045D01*
X019045Y020409D01*
X01915Y020395D01*
X019255Y020409D01*
X019352Y02045D01*
X019436Y020514D01*
X0195Y020598D01*
X019541Y020695D01*
X019555Y0208D01*
X019541Y020905D01*
X0195Y021002D01*
X019436Y021086D01*
X019352Y02115D01*
X019255Y021191D01*
X01915Y021205D01*
D02*
G37*
G36*
X01715D02*
X017045Y021191D01*
X016948Y02115D01*
X016864Y021086D01*
X0168Y021002D01*
X016759Y020905D01*
X016745Y0208D01*
X016759Y020695D01*
X0168Y020598D01*
X016864Y020514D01*
X016948Y02045D01*
X017045Y020409D01*
X01715Y020395D01*
X017255Y020409D01*
X017352Y02045D01*
X017436Y020514D01*
X0175Y020598D01*
X017541Y020695D01*
X017555Y0208D01*
X017541Y020905D01*
X0175Y021002D01*
X017436Y021086D01*
X017352Y02115D01*
X017255Y021191D01*
X01715Y021205D01*
D02*
G37*
G36*
X054365Y02075D02*
X054D01*
Y020385D01*
X054365D01*
Y02075D01*
D02*
G37*
G36*
X0539D02*
X053535D01*
Y020385D01*
X0539D01*
Y02075D01*
D02*
G37*
G36*
X0412Y018896D02*
Y01855D01*
X041546D01*
X041539Y018604D01*
X041499Y018701D01*
X041435Y018785D01*
X041351Y018849D01*
X041254Y018889D01*
X0412Y018896D01*
D02*
G37*
G36*
X0411D02*
X041046Y018889D01*
X040949Y018849D01*
X040865Y018785D01*
X040801Y018701D01*
X040761Y018604D01*
X040754Y01855D01*
X0411D01*
Y018896D01*
D02*
G37*
G36*
X03015Y021205D02*
X030045Y021191D01*
X029948Y02115D01*
X029864Y021086D01*
X0298Y021002D01*
X029759Y020905D01*
X029745Y0208D01*
X029759Y020695D01*
X0298Y020598D01*
X029864Y020514D01*
X029948Y02045D01*
X030045Y020409D01*
X03015Y020395D01*
X03016Y020397D01*
X030178Y020396D01*
X0302Y020394D01*
X03022Y020391D01*
X03024Y020386D01*
X030258Y02038D01*
X030275Y020372D01*
X030291Y020364D01*
X030306Y020354D01*
X030314Y020347D01*
X032156Y018506D01*
X032222Y018462D01*
X0323Y018446D01*
X035181D01*
X035202Y018445D01*
X035225Y018441D01*
Y018438D01*
X035438Y018225D01*
X035863D01*
X036075Y018438D01*
Y018863D01*
X035863Y019075D01*
X035438D01*
X035225Y018863D01*
Y018859D01*
X035176Y018854D01*
X032384D01*
X030603Y020636D01*
X030596Y020644D01*
X030586Y020659D01*
X030578Y020675D01*
X03057Y020692D01*
X030564Y02071D01*
X030559Y02073D01*
X030556Y02075D01*
X030554Y020772D01*
X030553Y02079D01*
X030555Y0208D01*
X030541Y020905D01*
X0305Y021002D01*
X030436Y021086D01*
X030352Y02115D01*
X030255Y021191D01*
X03015Y021205D01*
D02*
G37*
G36*
X03665Y019079D02*
X036539Y019064D01*
X036436Y019021D01*
X036347Y018953D01*
X036279Y018864D01*
X036236Y018761D01*
X036221Y01865D01*
X036236Y018539D01*
X036279Y018436D01*
X036347Y018347D01*
X036436Y018279D01*
X036539Y018236D01*
X03665Y018221D01*
X036761Y018236D01*
X036864Y018279D01*
X036953Y018347D01*
X037021Y018436D01*
X037064Y018539D01*
X037079Y01865D01*
X037064Y018761D01*
X037021Y018864D01*
X036953Y018953D01*
X036864Y019021D01*
X036761Y019064D01*
X03665Y019079D01*
D02*
G37*
G36*
X03115Y021205D02*
X031045Y021191D01*
X030948Y02115D01*
X030864Y021086D01*
X0308Y021002D01*
X030759Y020905D01*
X030745Y0208D01*
X030759Y020695D01*
X0308Y020598D01*
X030864Y020514D01*
X030948Y02045D01*
X031045Y020409D01*
X03115Y020395D01*
X03116Y020397D01*
X031178Y020396D01*
X0312Y020394D01*
X03122Y020391D01*
X03124Y020386D01*
X031258Y02038D01*
X031275Y020372D01*
X031291Y020364D01*
X031306Y020354D01*
X031314Y020347D01*
X032084Y019578D01*
X03215Y019534D01*
X032228Y019518D01*
X032228Y019518D01*
X037293D01*
X038019Y018793D01*
X038037Y018772D01*
X03806Y018743D01*
X038075Y018721D01*
Y018388D01*
X038287Y018175D01*
X038712D01*
X038925Y018388D01*
Y018813D01*
X038712Y019025D01*
X038379D01*
X038358Y019039D01*
X038303Y019085D01*
X037522Y019866D01*
X037456Y01991D01*
X037378Y019926D01*
X032312D01*
X031603Y020636D01*
X031596Y020644D01*
X031586Y020659D01*
X031578Y020675D01*
X03157Y020692D01*
X031564Y02071D01*
X031559Y02073D01*
X031556Y02075D01*
X031554Y020772D01*
X031553Y02079D01*
X031555Y0208D01*
X031541Y020905D01*
X0315Y021002D01*
X031436Y021086D01*
X031352Y02115D01*
X031255Y021191D01*
X03115Y021205D01*
D02*
G37*
G36*
X0395Y019029D02*
X039389Y019014D01*
X039286Y018971D01*
X039197Y018903D01*
X039129Y018814D01*
X039086Y018711D01*
X039071Y0186D01*
X039086Y018489D01*
X039129Y018386D01*
X039197Y018297D01*
X039286Y018229D01*
X039389Y018186D01*
X0395Y018171D01*
X039611Y018186D01*
X039714Y018229D01*
X039803Y018297D01*
X039871Y018386D01*
X039914Y018489D01*
X039929Y0186D01*
X039914Y018711D01*
X039871Y018814D01*
X039803Y018903D01*
X039714Y018971D01*
X039611Y019014D01*
X0395Y019029D01*
D02*
G37*
G36*
X041546Y01845D02*
X0412D01*
Y018104D01*
X041254Y018111D01*
X041351Y018151D01*
X041435Y018215D01*
X041499Y018299D01*
X041539Y018396D01*
X041546Y01845D01*
D02*
G37*
G36*
X0411D02*
X040754D01*
X040761Y018396D01*
X040801Y018299D01*
X040865Y018215D01*
X040949Y018151D01*
X041046Y018111D01*
X0411Y018104D01*
Y01845D01*
D02*
G37*
G36*
X01165Y01828D02*
Y017958D01*
X011972D01*
X011966Y018006D01*
X011928Y018097D01*
X011868Y018176D01*
X011789Y018236D01*
X011698Y018274D01*
X01165Y01828D01*
D02*
G37*
G36*
X01155D02*
X011502Y018274D01*
X011411Y018236D01*
X011332Y018176D01*
X011272Y018097D01*
X011234Y018006D01*
X011228Y017958D01*
X01155D01*
Y01828D01*
D02*
G37*
G36*
X05295Y021219D02*
X052842Y021204D01*
X052741Y021162D01*
X052654Y021096D01*
X052588Y021009D01*
X052546Y020908D01*
X052531Y0208D01*
X052546Y020692D01*
X052588Y020591D01*
X052597Y020578D01*
Y018283D01*
X052594Y018217D01*
X052581Y018145D01*
X052561Y018086D01*
X052535Y018037D01*
X052503Y017997D01*
X052463Y017965D01*
X052414Y017939D01*
X052355Y017919D01*
X052283Y017906D01*
X052217Y017903D01*
X044676D01*
X044612Y017905D01*
X044525Y017915D01*
X04444Y017931D01*
X044358Y017954D01*
X044279Y017983D01*
X044203Y018018D01*
X044129Y01806D01*
X044058Y018108D01*
X043989Y018164D01*
X043942Y018207D01*
X041855Y020294D01*
X041751Y020406D01*
X041702Y020466D01*
X041659Y020525D01*
X041624Y02058D01*
X041596Y020631D01*
X041575Y020679D01*
X041561Y020723D01*
X041553Y020762D01*
X04155Y020805D01*
X041549Y020807D01*
Y020899D01*
X041452D01*
X041448Y0209D01*
X041444Y020899D01*
X041441Y0209D01*
X041439Y020899D01*
X040751D01*
Y020211D01*
X04075Y020209D01*
X040751Y020206D01*
X04075Y020202D01*
X040751Y020198D01*
Y020101D01*
X040843D01*
X040845Y0201D01*
X040888Y020097D01*
X040927Y020089D01*
X040971Y020075D01*
X041019Y020054D01*
X04107Y020026D01*
X041125Y019991D01*
X041183Y019949D01*
X041185Y019946D01*
X041165Y019901D01*
X04115Y019903D01*
X041046Y019889D01*
X040949Y019849D01*
X040865Y019785D01*
X040801Y019701D01*
X040761Y019604D01*
X040747Y0195D01*
X040761Y019396D01*
X040801Y019299D01*
X040865Y019215D01*
X040949Y019151D01*
X041046Y019111D01*
X04115Y019097D01*
X041254Y019111D01*
X041351Y019151D01*
X041435Y019215D01*
X041499Y019299D01*
X041539Y019396D01*
X041553Y0195D01*
X041549Y019532D01*
X041596Y019555D01*
X043313Y017838D01*
X043313Y01777D01*
X040646Y015103D01*
X039937D01*
Y016098D01*
X039938Y016106D01*
X039941Y016121D01*
X039945Y016136D01*
X039951Y016149D01*
X039957Y016162D01*
X039965Y016174D01*
X039974Y016185D01*
X039984Y016196D01*
X04Y01621D01*
X040003Y016215D01*
X040026Y016232D01*
X040086Y016311D01*
X040124Y016402D01*
X040137Y0165D01*
X040124Y016598D01*
X040086Y016689D01*
X040026Y016768D01*
X039947Y016828D01*
X039856Y016866D01*
X039758Y016879D01*
X03966Y016866D01*
X039568Y016828D01*
X03949Y016768D01*
X03943Y016689D01*
X039392Y016598D01*
X039379Y0165D01*
X039392Y016402D01*
X03943Y016311D01*
X039464Y016266D01*
X039468Y016258D01*
X039482Y01624D01*
X039492Y016225D01*
X039502Y01621D01*
X039509Y016194D01*
X039516Y016178D01*
X039521Y016162D01*
X039525Y016145D01*
X039528Y016127D01*
X039529Y016121D01*
Y015082D01*
X039518Y015078D01*
X03944Y015018D01*
X03938Y014939D01*
X039367Y014908D01*
X038512Y014053D01*
X01795D01*
X017859Y014041D01*
X017773Y014006D01*
X0177Y01395D01*
X0159Y01215D01*
X015844Y012077D01*
X015809Y011991D01*
X015797Y0119D01*
Y011541D01*
X015794Y011349D01*
X015786Y011235D01*
X015782Y011201D01*
X015749D01*
Y011152D01*
X015747Y011151D01*
X015713Y011145D01*
X015447Y011128D01*
X012199D01*
X011989Y011135D01*
X011885Y011144D01*
X011851Y011149D01*
X011835Y011153D01*
X011812Y011175D01*
X011766D01*
X011762Y011176D01*
X011758Y011175D01*
X011387D01*
X011175Y010963D01*
Y010538D01*
X011387Y010325D01*
X01175D01*
X01175Y010325D01*
X011751Y010325D01*
X011758D01*
X011762Y010324D01*
X011766Y010325D01*
X011812D01*
X011852Y010365D01*
X011859Y010369D01*
X011888Y010379D01*
X011928Y01039D01*
X011975Y010399D01*
X012268Y010422D01*
X01553D01*
X015749Y010415D01*
Y010399D01*
X015846D01*
X01585Y010398D01*
X015851Y010398D01*
X015853Y010398D01*
X015856Y010399D01*
X016551D01*
Y01109D01*
X016552Y011091D01*
X016551Y011094D01*
Y011096D01*
X016552Y0111D01*
X016551Y011104D01*
Y011201D01*
X016523D01*
X016503Y0115D01*
Y011754D01*
X018096Y013347D01*
X035659D01*
X035675Y0133D01*
X035661Y013289D01*
X035585Y01319D01*
X035537Y013074D01*
X035527Y013D01*
X036268D01*
Y013212D01*
X036272Y01321D01*
X036281Y013208D01*
X036294Y013206D01*
X036333Y013203D01*
X036406Y013201D01*
X036339Y013289D01*
X036325Y0133D01*
X036341Y013347D01*
X038159D01*
X038175Y0133D01*
X038161Y013289D01*
X038097Y013205D01*
X038232Y013212D01*
Y013D01*
X038973D01*
X038963Y013074D01*
X038915Y01319D01*
X038839Y013289D01*
X038794Y013323D01*
X038801Y013381D01*
X038834Y013394D01*
X038907Y01345D01*
X039854Y014397D01*
X040663D01*
X040694Y014384D01*
X040792Y014371D01*
X04089Y014384D01*
X040982Y014422D01*
X04106Y014482D01*
X04112Y014561D01*
X041133Y014592D01*
X043738Y017197D01*
X056863D01*
X056894Y017184D01*
X056992Y017171D01*
X05709Y017184D01*
X057182Y017222D01*
X05726Y017282D01*
X05732Y017361D01*
X057358Y017452D01*
X057371Y01755D01*
X057358Y017648D01*
X05732Y017739D01*
X05726Y017818D01*
X057182Y017878D01*
X05709Y017916D01*
X056992Y017929D01*
X056894Y017916D01*
X056863Y017903D01*
X053683D01*
X053617Y017906D01*
X053545Y017919D01*
X053486Y017939D01*
X053437Y017965D01*
X053397Y017997D01*
X053365Y018037D01*
X053339Y018086D01*
X053319Y018145D01*
X053306Y018217D01*
X053303Y018283D01*
Y020578D01*
X053312Y020591D01*
X053354Y020692D01*
X053369Y0208D01*
X053354Y020908D01*
X053312Y021009D01*
X053246Y021096D01*
X053159Y021162D01*
X053058Y021204D01*
X05295Y021219D01*
D02*
G37*
G36*
X011972Y017858D02*
X01165D01*
Y017536D01*
X011698Y017542D01*
X011789Y01758D01*
X011868Y01764D01*
X011928Y017718D01*
X011966Y01781D01*
X011972Y017858D01*
D02*
G37*
G36*
X01155D02*
X011228D01*
X011234Y01781D01*
X011272Y017718D01*
X011332Y01764D01*
X011411Y01758D01*
X011502Y017542D01*
X01155Y017536D01*
Y017858D01*
D02*
G37*
G36*
X063Y017872D02*
Y0175D01*
X063372D01*
X063364Y017561D01*
X063321Y017664D01*
X063253Y017753D01*
X063164Y017821D01*
X063061Y017864D01*
X063Y017872D01*
D02*
G37*
G36*
X0629D02*
X062839Y017864D01*
X062736Y017821D01*
X062647Y017753D01*
X062579Y017664D01*
X062536Y017561D01*
X062528Y0175D01*
X0629D01*
Y017872D01*
D02*
G37*
G36*
X063372Y0174D02*
X063D01*
Y017028D01*
X063061Y017036D01*
X063164Y017079D01*
X063253Y017147D01*
X063321Y017236D01*
X063364Y017339D01*
X063372Y0174D01*
D02*
G37*
G36*
X0629D02*
X062528D01*
X062536Y017339D01*
X062579Y017236D01*
X062647Y017147D01*
X062736Y017079D01*
X062839Y017036D01*
X0629Y017028D01*
Y0174D01*
D02*
G37*
G36*
X061008Y017929D02*
X06091Y017916D01*
X060818Y017878D01*
X06074Y017818D01*
X06068Y017739D01*
X060642Y017648D01*
X060629Y01755D01*
X060642Y017452D01*
X06068Y017361D01*
X06074Y017282D01*
X060818Y017222D01*
X06091Y017184D01*
X061008Y017171D01*
X061106Y017184D01*
X061197Y017222D01*
X061217Y017237D01*
X061223Y01724D01*
X061242Y017252D01*
X061259Y017262D01*
X061276Y01727D01*
X061293Y017278D01*
X06131Y017284D01*
X061328Y017289D01*
X061346Y017293D01*
X061365Y017296D01*
X061369Y017296D01*
X061476D01*
X061494Y017295D01*
X061518Y017291D01*
X061525Y017289D01*
Y017237D01*
X061737Y017025D01*
X062162D01*
X062375Y017237D01*
Y017663D01*
X062162Y017875D01*
X061737D01*
X061578Y017715D01*
X061577Y017715D01*
X06155Y01771D01*
X061483Y017704D01*
X061416D01*
X061409Y017705D01*
X061394Y017708D01*
X061381Y017712D01*
X061369Y017717D01*
X061358Y017723D01*
X061349Y01773D01*
X061339Y017739D01*
X06133Y017749D01*
X061318Y017765D01*
X061312Y01777D01*
X061276Y017818D01*
X061197Y017878D01*
X061106Y017916D01*
X061008Y017929D01*
D02*
G37*
G36*
X044858Y016872D02*
Y01655D01*
X04518D01*
X045174Y016598D01*
X045136Y016689D01*
X045076Y016768D01*
X044997Y016828D01*
X044906Y016866D01*
X044858Y016872D01*
D02*
G37*
G36*
X044758D02*
X04471Y016866D01*
X044618Y016828D01*
X04454Y016768D01*
X04448Y016689D01*
X044442Y016598D01*
X044436Y01655D01*
X044758D01*
Y016872D01*
D02*
G37*
G36*
X04518Y01645D02*
X044858D01*
Y016128D01*
X044906Y016134D01*
X044997Y016172D01*
X045076Y016232D01*
X045136Y016311D01*
X045174Y016402D01*
X04518Y01645D01*
D02*
G37*
G36*
X044758D02*
X044436D01*
X044442Y016402D01*
X04448Y016311D01*
X04454Y016232D01*
X044618Y016172D01*
X04471Y016134D01*
X044758Y016128D01*
Y01645D01*
D02*
G37*
G36*
X040792Y016879D02*
X040694Y016866D01*
X040603Y016828D01*
X040524Y016768D01*
X040464Y016689D01*
X040426Y016598D01*
X040413Y0165D01*
X040426Y016402D01*
X040464Y016311D01*
X040524Y016232D01*
X040603Y016172D01*
X040694Y016134D01*
X040792Y016121D01*
X04089Y016134D01*
X040982Y016172D01*
X04106Y016232D01*
X04112Y016311D01*
X041158Y016402D01*
X041171Y0165D01*
X041158Y016598D01*
X04112Y016689D01*
X04106Y016768D01*
X040982Y016828D01*
X04089Y016866D01*
X040792Y016879D01*
D02*
G37*
G36*
X035742D02*
X035644Y016866D01*
X035553Y016828D01*
X035474Y016768D01*
X035414Y016689D01*
X035376Y016598D01*
X035363Y0165D01*
X035376Y016402D01*
X035414Y016311D01*
X035474Y016232D01*
X035553Y016172D01*
X035644Y016134D01*
X035742Y016121D01*
X03584Y016134D01*
X035932Y016172D01*
X03601Y016232D01*
X03607Y016311D01*
X036108Y016402D01*
X036121Y0165D01*
X036108Y016598D01*
X03607Y016689D01*
X03601Y016768D01*
X035932Y016828D01*
X03584Y016866D01*
X035742Y016879D01*
D02*
G37*
G36*
X0595Y015398D02*
Y01485D01*
X060048D01*
X060041Y014918D01*
X060007Y015031D01*
X059951Y015135D01*
X059876Y015226D01*
X059785Y015301D01*
X059681Y015357D01*
X059568Y015391D01*
X0595Y015398D01*
D02*
G37*
G36*
X0594D02*
X059332Y015391D01*
X059219Y015357D01*
X059115Y015301D01*
X059024Y015226D01*
X058949Y015135D01*
X058893Y015031D01*
X058859Y014918D01*
X058852Y01485D01*
X0594D01*
Y015398D01*
D02*
G37*
G36*
X011365Y027665D02*
X010535D01*
Y026835D01*
X010736D01*
X010737Y026832D01*
X010741Y026817D01*
X010745Y026795D01*
X010746Y026781D01*
Y0251D01*
X010762Y025022D01*
X010806Y024956D01*
X013606Y022156D01*
X013672Y022112D01*
X01375Y022096D01*
X019093D01*
X019109Y022046D01*
X019106Y022044D01*
X018314Y021253D01*
X018306Y021246D01*
X018291Y021236D01*
X018275Y021228D01*
X018258Y02122D01*
X01824Y021214D01*
X01822Y021209D01*
X0182Y021206D01*
X018178Y021204D01*
X01816Y021203D01*
X01815Y021205D01*
X018045Y021191D01*
X017948Y02115D01*
X017864Y021086D01*
X0178Y021002D01*
X017759Y020905D01*
X017745Y0208D01*
X017759Y020695D01*
X0178Y020598D01*
X017864Y020514D01*
X017948Y02045D01*
X018045Y020409D01*
X01815Y020395D01*
X018255Y020409D01*
X018352Y02045D01*
X018436Y020514D01*
X0185Y020598D01*
X018541Y020695D01*
X018555Y0208D01*
X018553Y02081D01*
X018554Y020828D01*
X018556Y02085D01*
X018559Y02087D01*
X018564Y02089D01*
X01857Y020908D01*
X018578Y020925D01*
X018586Y020941D01*
X018596Y020956D01*
X018603Y020964D01*
X019334Y021696D01*
X021696D01*
X021708Y021646D01*
X021314Y021253D01*
X021306Y021246D01*
X021291Y021236D01*
X021275Y021228D01*
X021258Y02122D01*
X02124Y021214D01*
X02122Y021209D01*
X0212Y021206D01*
X021178Y021204D01*
X02116Y021203D01*
X02115Y021205D01*
X021045Y021191D01*
X020948Y02115D01*
X020864Y021086D01*
X0208Y021002D01*
X020759Y020905D01*
X020745Y0208D01*
X020759Y020695D01*
X0208Y020598D01*
X020864Y020514D01*
X020948Y02045D01*
X021045Y020409D01*
X02115Y020395D01*
X021255Y020409D01*
X021352Y02045D01*
X021436Y020514D01*
X0215Y020598D01*
X021541Y020695D01*
X021555Y0208D01*
X021553Y02081D01*
X021554Y020828D01*
X021556Y02085D01*
X021559Y02087D01*
X021564Y02089D01*
X02157Y020908D01*
X021578Y020925D01*
X021586Y020941D01*
X021596Y020956D01*
X021603Y020964D01*
X021944Y021306D01*
X047427D01*
X048593Y020141D01*
X048593Y020141D01*
X048659Y020097D01*
X048737Y020081D01*
X05155D01*
X051628Y020097D01*
X051694Y020141D01*
X051859Y020306D01*
X051866Y020311D01*
X051883Y020324D01*
X051902Y020336D01*
X051947Y020359D01*
X051969Y020369D01*
X052025Y020388D01*
X052046Y020394D01*
X052058Y020396D01*
X052159Y020438D01*
X052246Y020504D01*
X052312Y020591D01*
X052354Y020692D01*
X052369Y0208D01*
X052354Y020908D01*
X052312Y021009D01*
X052246Y021096D01*
X052159Y021162D01*
X052058Y021204D01*
X05195Y021219D01*
X051842Y021204D01*
X051741Y021162D01*
X051654Y021096D01*
X051588Y021009D01*
X051546Y020908D01*
X051531Y0208D01*
X051546Y020692D01*
X05155Y020682D01*
X051553Y020668D01*
X051556Y020649D01*
X051556Y020631D01*
X051555Y020616D01*
X051552Y020601D01*
X051548Y020587D01*
X051541Y020573D01*
X051533Y020559D01*
X051526Y020549D01*
X051466Y020489D01*
X051297D01*
X051273Y020539D01*
X051312Y020591D01*
X051354Y020692D01*
X051369Y0208D01*
X051354Y020908D01*
X051312Y021009D01*
X051246Y021096D01*
X051159Y021162D01*
X051058Y021204D01*
X05095Y021219D01*
X050939Y021217D01*
X050919Y021218D01*
X050895Y02122D01*
X050872Y021223D01*
X05085Y021228D01*
X05083Y021235D01*
X050812Y021243D01*
X050795Y021252D01*
X050778Y021262D01*
X050769Y021269D01*
X049994Y022044D01*
X049991Y022046D01*
X050007Y022096D01*
X060066D01*
X064546Y017616D01*
Y016004D01*
X064545Y015989D01*
X064541Y015968D01*
X064537Y015953D01*
X064536Y01595D01*
X06385D01*
Y015562D01*
X063849Y015558D01*
X06385Y015554D01*
Y015322D01*
X063822Y015273D01*
X063771Y0152D01*
X063621Y015022D01*
X063567Y014966D01*
X062804Y014203D01*
X059712D01*
X059699Y014253D01*
X059785Y014299D01*
X059876Y014374D01*
X059951Y014465D01*
X060007Y014569D01*
X060041Y014682D01*
X060048Y01475D01*
X058852D01*
X058859Y014682D01*
X058893Y014569D01*
X058949Y014465D01*
X059024Y014374D01*
X059115Y014299D01*
X059201Y014253D01*
X059188Y014203D01*
X05895D01*
X058859Y014191D01*
X058773Y014156D01*
X0587Y0141D01*
X058272Y013671D01*
X058216Y013598D01*
X05818Y013513D01*
X058168Y013421D01*
Y013293D01*
X058Y013125D01*
Y012475D01*
X058225Y01225D01*
X05824D01*
X058241Y012248D01*
X058242Y012239D01*
X058246Y012177D01*
Y011384D01*
X058007Y011145D01*
X058Y01114D01*
X057985Y01113D01*
X057969Y011121D01*
X057952Y011114D01*
X057935Y011108D01*
X057917Y011103D01*
X057897Y0111D01*
X057876Y011098D01*
X05786Y011097D01*
X05785Y011099D01*
X057747Y011085D01*
X057651Y011045D01*
X057568Y010982D01*
X057505Y010899D01*
X057465Y010803D01*
X057451Y0107D01*
X057465Y010597D01*
X057505Y010501D01*
X057568Y010418D01*
X057651Y010355D01*
X057747Y010315D01*
X05785Y010301D01*
X057953Y010315D01*
X058049Y010355D01*
X058132Y010418D01*
X058195Y010501D01*
X058235Y010597D01*
X058249Y0107D01*
X058247Y01071D01*
X058248Y010726D01*
X05825Y010747D01*
X058253Y010767D01*
X058258Y010785D01*
X058264Y010802D01*
X058271Y010819D01*
X05828Y010835D01*
X05829Y01085D01*
X058295Y010857D01*
X058594Y011156D01*
X058638Y011222D01*
X058654Y0113D01*
Y012191D01*
X058655Y012215D01*
X058655Y012221D01*
X058659Y012248D01*
X05866Y01225D01*
X058675D01*
X0589Y012475D01*
Y013125D01*
X058874Y013151D01*
Y013275D01*
X059096Y013497D01*
X06295D01*
X063041Y013509D01*
X063127Y013544D01*
X0632Y0136D01*
X064043Y014444D01*
X064216Y014604D01*
X064299Y01467D01*
X064373Y014722D01*
X064422Y01475D01*
X064654D01*
X064658Y014749D01*
X064662Y01475D01*
X06565D01*
Y01595D01*
X064964D01*
X064963Y015953D01*
X064959Y015968D01*
X064955Y015989D01*
X064954Y016004D01*
Y0177D01*
X064938Y017778D01*
X064894Y017844D01*
X060294Y022444D01*
X060228Y022488D01*
X06015Y022504D01*
X013834D01*
X011154Y025184D01*
Y026781D01*
X011155Y026795D01*
X011159Y026817D01*
X011163Y026832D01*
X011164Y026835D01*
X011365D01*
Y027665D01*
D02*
G37*
G36*
X035692Y015129D02*
X035594Y015116D01*
X035503Y015078D01*
X035424Y015018D01*
X035364Y014939D01*
X035326Y014848D01*
X035313Y01475D01*
X035326Y014652D01*
X035364Y014561D01*
X035424Y014482D01*
X035503Y014422D01*
X035594Y014384D01*
X035692Y014371D01*
X03579Y014384D01*
X035882Y014422D01*
X03596Y014482D01*
X03602Y014561D01*
X036058Y014652D01*
X036071Y01475D01*
X036058Y014848D01*
X03602Y014939D01*
X03596Y015018D01*
X035882Y015078D01*
X03579Y015116D01*
X035692Y015129D01*
D02*
G37*
G36*
X06735Y01525D02*
X06615D01*
Y01345D01*
X06735D01*
Y01525D01*
D02*
G37*
G36*
X0439Y013423D02*
Y013D01*
X044323D01*
X044313Y013074D01*
X044265Y01319D01*
X044189Y013289D01*
X04409Y013365D01*
X043974Y013413D01*
X0439Y013423D01*
D02*
G37*
G36*
X0438D02*
X043726Y013413D01*
X04361Y013365D01*
X043511Y013289D01*
X043435Y01319D01*
X043387Y013074D01*
X043377Y013D01*
X0438D01*
Y013423D01*
D02*
G37*
G36*
X0414D02*
Y013D01*
X041823D01*
X041813Y013074D01*
X041765Y01319D01*
X041689Y013289D01*
X04159Y013365D01*
X041474Y013413D01*
X0414Y013423D01*
D02*
G37*
G36*
X0413D02*
X041226Y013413D01*
X04111Y013365D01*
X041011Y013289D01*
X040935Y01319D01*
X040887Y013074D01*
X040877Y013D01*
X0413D01*
Y013423D01*
D02*
G37*
G36*
X06565Y01345D02*
X0648D01*
Y0129D01*
X06565D01*
Y01345D01*
D02*
G37*
G36*
X0647D02*
X06385D01*
Y0129D01*
X0647D01*
Y01345D01*
D02*
G37*
G36*
X059675Y01335D02*
X0595D01*
Y01285D01*
X0599D01*
Y013125D01*
X059675Y01335D01*
D02*
G37*
G36*
X0594D02*
X059225D01*
X059Y013125D01*
Y01285D01*
X0594D01*
Y01335D01*
D02*
G37*
G36*
X03845Y0129D02*
X038232D01*
Y012687D01*
X038228Y01269D01*
X038219Y012692D01*
X038206Y012694D01*
X038167Y012697D01*
X038094Y012699D01*
X038161Y012611D01*
X03826Y012535D01*
X038376Y012487D01*
X03845Y012477D01*
Y0129D01*
D02*
G37*
G36*
X044323D02*
X0439D01*
Y012477D01*
X043974Y012487D01*
X04409Y012535D01*
X044189Y012611D01*
X044265Y01271D01*
X044313Y012826D01*
X044323Y0129D01*
D02*
G37*
G36*
X0438D02*
X043377D01*
X043387Y012826D01*
X043435Y01271D01*
X043511Y012611D01*
X04361Y012535D01*
X043726Y012487D01*
X0438Y012477D01*
Y0129D01*
D02*
G37*
G36*
X041823D02*
X0414D01*
Y012477D01*
X041474Y012487D01*
X04159Y012535D01*
X041689Y012611D01*
X041765Y01271D01*
X041813Y012826D01*
X041823Y0129D01*
D02*
G37*
G36*
X0413D02*
X040877D01*
X040887Y012826D01*
X040935Y01271D01*
X041011Y012611D01*
X04111Y012535D01*
X041226Y012487D01*
X0413Y012477D01*
Y0129D01*
D02*
G37*
G36*
X038973D02*
X03855D01*
Y012477D01*
X038624Y012487D01*
X03874Y012535D01*
X038839Y012611D01*
X038915Y01271D01*
X038963Y012826D01*
X038973Y0129D01*
D02*
G37*
G36*
X036268D02*
X03605D01*
Y012477D01*
X036124Y012487D01*
X03624Y012535D01*
X036339Y012611D01*
X036403Y012695D01*
X036268Y012687D01*
Y0129D01*
D02*
G37*
G36*
X03595D02*
X035527D01*
X035537Y012826D01*
X035585Y01271D01*
X035661Y012611D01*
X03576Y012535D01*
X035876Y012487D01*
X03595Y012477D01*
Y0129D01*
D02*
G37*
G36*
X03965Y012692D02*
Y01235D01*
X039992D01*
X039985Y012403D01*
X039945Y012499D01*
X039882Y012582D01*
X039799Y012645D01*
X039703Y012685D01*
X03965Y012692D01*
D02*
G37*
G36*
X03955D02*
X039497Y012685D01*
X039401Y012645D01*
X039318Y012582D01*
X039255Y012499D01*
X039215Y012403D01*
X039208Y01235D01*
X03955D01*
Y012692D01*
D02*
G37*
G36*
X06565Y0128D02*
X0648D01*
Y01225D01*
X06565D01*
Y0128D01*
D02*
G37*
G36*
X0647D02*
X06385D01*
Y01225D01*
X0647D01*
Y0128D01*
D02*
G37*
G36*
X0599Y01275D02*
X0595D01*
Y01225D01*
X059675D01*
X0599Y012475D01*
Y01275D01*
D02*
G37*
G36*
X0594D02*
X059D01*
Y012475D01*
X059225Y01225D01*
X0594D01*
Y01275D01*
D02*
G37*
G36*
X04505Y012542D02*
X044997Y012535D01*
X044901Y012495D01*
X044818Y012432D01*
X044755Y012349D01*
X044715Y012253D01*
X044708Y0122D01*
X04505D01*
Y012542D01*
D02*
G37*
G36*
X039992Y01225D02*
X03965D01*
Y011908D01*
X039703Y011915D01*
X039799Y011955D01*
X039882Y012018D01*
X039945Y012101D01*
X039985Y012197D01*
X039992Y01225D01*
D02*
G37*
G36*
X03955D02*
X039208D01*
X039215Y012197D01*
X039255Y012101D01*
X039318Y012018D01*
X039401Y011955D01*
X039497Y011915D01*
X03955Y011908D01*
Y01225D01*
D02*
G37*
G36*
X04505Y0121D02*
X044708D01*
X044715Y012047D01*
X044755Y011951D01*
X044818Y011868D01*
X044901Y011805D01*
X044997Y011765D01*
X04505Y011758D01*
Y0121D01*
D02*
G37*
G36*
X0116Y014271D02*
X011502Y014258D01*
X011411Y01422D01*
X011332Y01416D01*
X011272Y014082D01*
X011234Y01399D01*
X011221Y013892D01*
X011234Y013794D01*
X011272Y013703D01*
X011332Y013624D01*
X011339Y013619D01*
X011348Y013609D01*
X011359Y013596D01*
X011368Y013583D01*
X011376Y013569D01*
X011382Y013555D01*
X011388Y01354D01*
X011392Y013524D01*
X011395Y013507D01*
X011396Y0135D01*
Y012227D01*
X011394Y012214D01*
X01139Y012195D01*
X011384Y012175D01*
X011376Y012156D01*
X011365Y012136D01*
X011353Y012116D01*
X011338Y012096D01*
X011321Y012076D01*
X011306Y01206D01*
X011297Y012053D01*
X011229Y011964D01*
X011186Y011861D01*
X011171Y01175D01*
X011186Y011639D01*
X011229Y011536D01*
X011297Y011447D01*
X011386Y011379D01*
X011489Y011336D01*
X0116Y011321D01*
X011711Y011336D01*
X011814Y011379D01*
X011903Y011447D01*
X011971Y011536D01*
X012014Y011639D01*
X012029Y01175D01*
X012014Y011861D01*
X011971Y011964D01*
X011903Y012053D01*
X011894Y01206D01*
X011879Y012076D01*
X011862Y012096D01*
X011847Y012116D01*
X011835Y012136D01*
X011824Y012156D01*
X011816Y012175D01*
X01181Y012195D01*
X011806Y012214D01*
X011804Y012227D01*
Y0135D01*
X011805Y013507D01*
X011808Y013524D01*
X011812Y01354D01*
X011818Y013555D01*
X011824Y013569D01*
X011832Y013583D01*
X011841Y013596D01*
X011852Y013609D01*
X011861Y013619D01*
X011868Y013624D01*
X011928Y013703D01*
X011966Y013794D01*
X011979Y013892D01*
X011966Y01399D01*
X011928Y014082D01*
X011868Y01416D01*
X011789Y01422D01*
X011698Y014258D01*
X0116Y014271D01*
D02*
G37*
G36*
X0292Y011198D02*
Y01085D01*
X029548D01*
X029541Y010905D01*
X0295Y011002D01*
X029436Y011086D01*
X029352Y01115D01*
X029255Y011191D01*
X0292Y011198D01*
D02*
G37*
G36*
X0291D02*
X029045Y011191D01*
X028948Y01115D01*
X028864Y011086D01*
X0288Y011002D01*
X028759Y010905D01*
X028752Y01085D01*
X0291D01*
Y011198D01*
D02*
G37*
G36*
X06065Y011092D02*
Y01075D01*
X060992D01*
X060985Y010803D01*
X060945Y010899D01*
X060882Y010982D01*
X060799Y011045D01*
X060703Y011085D01*
X06065Y011092D01*
D02*
G37*
G36*
X0589D02*
Y01075D01*
X059242D01*
X059235Y010803D01*
X059195Y010899D01*
X059132Y010982D01*
X059049Y011045D01*
X058953Y011085D01*
X0589Y011092D01*
D02*
G37*
G36*
X0588D02*
X058747Y011085D01*
X058651Y011045D01*
X058568Y010982D01*
X058505Y010899D01*
X058465Y010803D01*
X058458Y01075D01*
X0588D01*
Y011092D01*
D02*
G37*
G36*
X06055D02*
X060497Y011085D01*
X060401Y011045D01*
X060318Y010982D01*
X060255Y010899D01*
X060215Y010803D01*
X060208Y01075D01*
X06055D01*
Y011092D01*
D02*
G37*
G36*
X02615Y011205D02*
X026045Y011191D01*
X025948Y01115D01*
X025864Y011086D01*
X0258Y011002D01*
X025759Y010905D01*
X025745Y0108D01*
X025759Y010695D01*
X0258Y010598D01*
X025864Y010514D01*
X025948Y01045D01*
X026045Y010409D01*
X02615Y010395D01*
X026255Y010409D01*
X026352Y01045D01*
X026436Y010514D01*
X0265Y010598D01*
X026541Y010695D01*
X026555Y0108D01*
X026541Y010905D01*
X0265Y011002D01*
X026436Y011086D01*
X026352Y01115D01*
X026255Y011191D01*
X02615Y011205D01*
D02*
G37*
G36*
X02515D02*
X025045Y011191D01*
X024948Y01115D01*
X024864Y011086D01*
X0248Y011002D01*
X024759Y010905D01*
X024745Y0108D01*
X024759Y010695D01*
X0248Y010598D01*
X024864Y010514D01*
X024948Y01045D01*
X025045Y010409D01*
X02515Y010395D01*
X025255Y010409D01*
X025352Y01045D01*
X025436Y010514D01*
X0255Y010598D01*
X025541Y010695D01*
X025555Y0108D01*
X025541Y010905D01*
X0255Y011002D01*
X025436Y011086D01*
X025352Y01115D01*
X025255Y011191D01*
X02515Y011205D01*
D02*
G37*
G36*
X02415D02*
X024045Y011191D01*
X023948Y01115D01*
X023864Y011086D01*
X0238Y011002D01*
X023759Y010905D01*
X023745Y0108D01*
X023759Y010695D01*
X0238Y010598D01*
X023864Y010514D01*
X023948Y01045D01*
X024045Y010409D01*
X02415Y010395D01*
X024255Y010409D01*
X024352Y01045D01*
X024436Y010514D01*
X0245Y010598D01*
X024541Y010695D01*
X024555Y0108D01*
X024541Y010905D01*
X0245Y011002D01*
X024436Y011086D01*
X024352Y01115D01*
X024255Y011191D01*
X02415Y011205D01*
D02*
G37*
G36*
X02315D02*
X023045Y011191D01*
X022948Y01115D01*
X022864Y011086D01*
X0228Y011002D01*
X022759Y010905D01*
X022745Y0108D01*
X022759Y010695D01*
X0228Y010598D01*
X022864Y010514D01*
X022948Y01045D01*
X023045Y010409D01*
X02315Y010395D01*
X023255Y010409D01*
X023352Y01045D01*
X023436Y010514D01*
X0235Y010598D01*
X023541Y010695D01*
X023555Y0108D01*
X023541Y010905D01*
X0235Y011002D01*
X023436Y011086D01*
X023352Y01115D01*
X023255Y011191D01*
X02315Y011205D01*
D02*
G37*
G36*
X02215D02*
X022045Y011191D01*
X021948Y01115D01*
X021864Y011086D01*
X0218Y011002D01*
X021759Y010905D01*
X021745Y0108D01*
X021759Y010695D01*
X0218Y010598D01*
X021864Y010514D01*
X021948Y01045D01*
X022045Y010409D01*
X02215Y010395D01*
X022255Y010409D01*
X022352Y01045D01*
X022436Y010514D01*
X0225Y010598D01*
X022541Y010695D01*
X022555Y0108D01*
X022541Y010905D01*
X0225Y011002D01*
X022436Y011086D01*
X022352Y01115D01*
X022255Y011191D01*
X02215Y011205D01*
D02*
G37*
G36*
X02115D02*
X021045Y011191D01*
X020948Y01115D01*
X020864Y011086D01*
X0208Y011002D01*
X020759Y010905D01*
X020745Y0108D01*
X020759Y010695D01*
X0208Y010598D01*
X020864Y010514D01*
X020948Y01045D01*
X021045Y010409D01*
X02115Y010395D01*
X021255Y010409D01*
X021352Y01045D01*
X021436Y010514D01*
X0215Y010598D01*
X021541Y010695D01*
X021555Y0108D01*
X021541Y010905D01*
X0215Y011002D01*
X021436Y011086D01*
X021352Y01115D01*
X021255Y011191D01*
X02115Y011205D01*
D02*
G37*
G36*
X02015D02*
X020045Y011191D01*
X019948Y01115D01*
X019864Y011086D01*
X0198Y011002D01*
X019759Y010905D01*
X019745Y0108D01*
X019759Y010695D01*
X0198Y010598D01*
X019864Y010514D01*
X019948Y01045D01*
X020045Y010409D01*
X02015Y010395D01*
X020255Y010409D01*
X020352Y01045D01*
X020436Y010514D01*
X0205Y010598D01*
X020541Y010695D01*
X020555Y0108D01*
X020541Y010905D01*
X0205Y011002D01*
X020436Y011086D01*
X020352Y01115D01*
X020255Y011191D01*
X02015Y011205D01*
D02*
G37*
G36*
X01915D02*
X019045Y011191D01*
X018948Y01115D01*
X018864Y011086D01*
X0188Y011002D01*
X018759Y010905D01*
X018745Y0108D01*
X018759Y010695D01*
X0188Y010598D01*
X018864Y010514D01*
X018948Y01045D01*
X019045Y010409D01*
X01915Y010395D01*
X019255Y010409D01*
X019352Y01045D01*
X019436Y010514D01*
X0195Y010598D01*
X019541Y010695D01*
X019555Y0108D01*
X019541Y010905D01*
X0195Y011002D01*
X019436Y011086D01*
X019352Y01115D01*
X019255Y011191D01*
X01915Y011205D01*
D02*
G37*
G36*
X01815D02*
X018045Y011191D01*
X017948Y01115D01*
X017864Y011086D01*
X0178Y011002D01*
X017759Y010905D01*
X017745Y0108D01*
X017759Y010695D01*
X0178Y010598D01*
X017864Y010514D01*
X017948Y01045D01*
X018045Y010409D01*
X01815Y010395D01*
X018255Y010409D01*
X018352Y01045D01*
X018436Y010514D01*
X0185Y010598D01*
X018541Y010695D01*
X018555Y0108D01*
X018541Y010905D01*
X0185Y011002D01*
X018436Y011086D01*
X018352Y01115D01*
X018255Y011191D01*
X01815Y011205D01*
D02*
G37*
G36*
X01715D02*
X017045Y011191D01*
X016948Y01115D01*
X016864Y011086D01*
X0168Y011002D01*
X016759Y010905D01*
X016745Y0108D01*
X016759Y010695D01*
X0168Y010598D01*
X016864Y010514D01*
X016948Y01045D01*
X017045Y010409D01*
X01715Y010395D01*
X017255Y010409D01*
X017352Y01045D01*
X017436Y010514D01*
X0175Y010598D01*
X017541Y010695D01*
X017555Y0108D01*
X017541Y010905D01*
X0175Y011002D01*
X017436Y011086D01*
X017352Y01115D01*
X017255Y011191D01*
X01715Y011205D01*
D02*
G37*
G36*
X060992Y01065D02*
X06065D01*
Y010308D01*
X060703Y010315D01*
X060799Y010355D01*
X060882Y010418D01*
X060945Y010501D01*
X060985Y010597D01*
X060992Y01065D01*
D02*
G37*
G36*
X059242D02*
X0589D01*
Y010308D01*
X058953Y010315D01*
X059049Y010355D01*
X059132Y010418D01*
X059195Y010501D01*
X059235Y010597D01*
X059242Y01065D01*
D02*
G37*
G36*
X0588D02*
X058458D01*
X058465Y010597D01*
X058505Y010501D01*
X058568Y010418D01*
X058651Y010355D01*
X058747Y010315D01*
X0588Y010308D01*
Y01065D01*
D02*
G37*
G36*
X06055D02*
X060208D01*
X060215Y010597D01*
X060255Y010501D01*
X060318Y010418D01*
X060401Y010355D01*
X060497Y010315D01*
X06055Y010308D01*
Y01065D01*
D02*
G37*
G36*
X060675Y01335D02*
X060225D01*
X06Y013125D01*
Y012475D01*
X060225Y01225D01*
X06024D01*
X060241Y012248D01*
X060245Y012221D01*
X060246Y012203D01*
Y01185D01*
X060262Y011772D01*
X060306Y011706D01*
X061155Y010857D01*
X06116Y01085D01*
X06117Y010835D01*
X061179Y010819D01*
X061186Y010802D01*
X061192Y010785D01*
X061197Y010767D01*
X0612Y010747D01*
X061202Y010726D01*
X061203Y01071D01*
X061201Y0107D01*
X061215Y010597D01*
X061255Y010501D01*
X061318Y010418D01*
X061401Y010355D01*
X061497Y010315D01*
X0616Y010301D01*
X061703Y010315D01*
X061799Y010355D01*
X061882Y010418D01*
X061945Y010501D01*
X061985Y010597D01*
X061999Y0107D01*
X061985Y010803D01*
X061945Y010899D01*
X061882Y010982D01*
X061799Y011045D01*
X061703Y011085D01*
X0616Y011099D01*
X06159Y011097D01*
X061574Y011098D01*
X061553Y0111D01*
X061533Y011103D01*
X061515Y011108D01*
X061498Y011114D01*
X061481Y011121D01*
X061465Y01113D01*
X06145Y01114D01*
X061443Y011145D01*
X060654Y011934D01*
Y012203D01*
X060655Y012221D01*
X060659Y012248D01*
X06066Y01225D01*
X060675D01*
X0609Y012475D01*
Y013125D01*
X060675Y01335D01*
D02*
G37*
%LPD*%
G36*
X030452Y020767D02*
X030455Y020737D01*
X030459Y020709D01*
X030466Y020682D01*
X030475Y020656D01*
X030486Y020631D01*
X030499Y020607D01*
X030514Y020584D01*
X03053Y020563D01*
X030549Y020542D01*
X030408Y020401D01*
X030387Y02042D01*
X030366Y020436D01*
X030343Y020451D01*
X030319Y020464D01*
X030294Y020475D01*
X030268Y020484D01*
X030241Y020491D01*
X030213Y020495D01*
X030183Y020498D01*
X030153Y020499D01*
X030451Y020797D01*
X030452Y020767D01*
D02*
G37*
G36*
X035365Y018451D02*
X035363Y01847D01*
X035356Y018487D01*
X035344Y018501D01*
X035327Y018514D01*
X035305Y018525D01*
X035279Y018534D01*
X035248Y018541D01*
X035212Y018546D01*
X035172Y018549D01*
X035126Y01855D01*
Y01875D01*
X035172Y018751D01*
X035248Y018759D01*
X035279Y018766D01*
X035305Y018775D01*
X035327Y018786D01*
X035344Y018799D01*
X035356Y018813D01*
X035363Y01883D01*
X035365Y018849D01*
Y018451D01*
D02*
G37*
G36*
X031452Y020767D02*
X031455Y020737D01*
X031459Y020709D01*
X031466Y020682D01*
X031475Y020656D01*
X031486Y020631D01*
X031499Y020607D01*
X031514Y020584D01*
X03153Y020563D01*
X031549Y020542D01*
X031408Y020401D01*
X031387Y02042D01*
X031366Y020436D01*
X031343Y020451D01*
X031319Y020464D01*
X031294Y020475D01*
X031268Y020484D01*
X031241Y020491D01*
X031213Y020495D01*
X031183Y020498D01*
X031153Y020499D01*
X031451Y020797D01*
X031452Y020767D01*
D02*
G37*
G36*
X038226Y019017D02*
X038296Y018958D01*
X038327Y018937D01*
X038356Y018921D01*
X038382Y01891D01*
X038405Y018905D01*
X038426Y018905D01*
X038444Y018911D01*
X038459Y018923D01*
X038177Y018641D01*
X038189Y018656D01*
X038195Y018674D01*
X038195Y018695D01*
X03819Y018718D01*
X038179Y018744D01*
X038163Y018773D01*
X038142Y018804D01*
X038115Y018838D01*
X038083Y018874D01*
X038045Y018914D01*
X038186Y019055D01*
X038226Y019017D01*
D02*
G37*
G36*
X041452Y020748D02*
X041462Y020697D01*
X04148Y020643D01*
X041505Y020586D01*
X041536Y020528D01*
X041575Y020467D01*
X041621Y020404D01*
X041674Y020339D01*
X041802Y020202D01*
X041448Y019848D01*
X041378Y019916D01*
X041246Y020029D01*
X041183Y020075D01*
X041122Y020114D01*
X041064Y020145D01*
X041007Y02017D01*
X040953Y020188D01*
X040902Y020198D01*
X040852Y020202D01*
X041448Y020798D01*
X041452Y020748D01*
D02*
G37*
G36*
X053205Y018205D02*
X05322Y01812D01*
X053245Y018045D01*
X05328Y01798D01*
X053325Y017925D01*
X05338Y01788D01*
X053445Y017845D01*
X05352Y01782D01*
X053605Y017805D01*
X0537Y0178D01*
X05295Y0173D01*
X0522Y0178D01*
X052295Y017805D01*
X05238Y01782D01*
X052455Y017845D01*
X05252Y01788D01*
X052575Y017925D01*
X05262Y01798D01*
X052655Y018045D01*
X05268Y01812D01*
X052695Y018205D01*
X0527Y0183D01*
X0532D01*
X053205Y018205D01*
D02*
G37*
G36*
X043922Y018086D02*
X043997Y018026D01*
X044075Y017973D01*
X044156Y017927D01*
X04424Y017888D01*
X044327Y017857D01*
X044417Y017832D01*
X044509Y017814D01*
X044605Y017804D01*
X044704Y0178D01*
X0441Y0173D01*
Y01755D01*
X04385Y018154D01*
X043922Y018086D01*
D02*
G37*
G36*
X039932Y016286D02*
X039913Y01627D01*
X039896Y016252D01*
X039882Y016233D01*
X039869Y016213D01*
X039858Y016192D01*
X039849Y016169D01*
X039842Y016146D01*
X039837Y016122D01*
X039834Y016096D01*
X039833Y016069D01*
X039633Y016089D01*
X039632Y016115D01*
X039629Y016141D01*
X039625Y016166D01*
X039619Y01619D01*
X039612Y016213D01*
X039602Y016236D01*
X039591Y016259D01*
X039578Y01628D01*
X039564Y016301D01*
X039548Y016322D01*
X039932Y016286D01*
D02*
G37*
G36*
X016401Y011505D02*
X016424Y011145D01*
X016432Y01112D01*
X01644Y011105D01*
X01645Y0111D01*
X01585D01*
X01586Y011105D01*
X015868Y01112D01*
X015876Y011145D01*
X015882Y01118D01*
X015888Y011225D01*
X015896Y011345D01*
X0159Y0116D01*
X0164D01*
X016401Y011505D01*
D02*
G37*
G36*
X01585Y0105D02*
X015845Y010505D01*
X01583Y010509D01*
X015805Y010513D01*
X01577Y010516D01*
X01553Y010524D01*
X01535Y010525D01*
Y011025D01*
X015445Y011026D01*
X015725Y011044D01*
X01577Y011052D01*
X015805Y011062D01*
X01583Y011073D01*
X015845Y011086D01*
X01585Y0111D01*
Y0105D01*
D02*
G37*
G36*
X011776Y011065D02*
X011799Y011056D01*
X011832Y011049D01*
X011873Y011043D01*
X011983Y011033D01*
X012215Y011025D01*
X012311Y011025D01*
X012361Y010525D01*
X012265Y010524D01*
X011961Y0105D01*
X011905Y010489D01*
X011857Y010477D01*
X011817Y010462D01*
X011786Y010445D01*
X011762Y010426D01*
Y011074D01*
X011776Y011065D01*
D02*
G37*
G36*
X061251Y017684D02*
X061267Y017667D01*
X061285Y017651D01*
X061303Y017637D01*
X061323Y017626D01*
X061345Y017617D01*
X061368Y017609D01*
X061392Y017604D01*
X061417Y017601D01*
X061438Y0176D01*
X061477Y017601D01*
X061564Y017609D01*
X061601Y017616D01*
X061632Y017625D01*
X061658Y017636D01*
X06168Y017649D01*
X061697Y017663D01*
X061708Y01768D01*
X061715Y017699D01*
X061627Y0173D01*
X061629Y017319D01*
X061626Y017336D01*
X061619Y017351D01*
X061606Y017364D01*
X061588Y017375D01*
X061566Y017384D01*
X061538Y017391D01*
X061506Y017396D01*
X061468Y017399D01*
X061426Y0174D01*
Y017509D01*
X061404Y0174D01*
X061379Y017399D01*
X061353Y017397D01*
X061328Y017393D01*
X061304Y017388D01*
X06128Y017381D01*
X061256Y017373D01*
X061233Y017363D01*
X06121Y017352D01*
X061188Y017339D01*
X061166Y017325D01*
X061236Y017704D01*
X061251Y017684D01*
D02*
G37*
G36*
X011131Y026934D02*
X011114Y026928D01*
X011099Y026918D01*
X011086Y026904D01*
X011075Y026886D01*
X011066Y026864D01*
X011059Y026838D01*
X011054Y026808D01*
X011051Y026774D01*
X01105Y026736D01*
X01085D01*
X010849Y026774D01*
X010846Y026808D01*
X010841Y026838D01*
X010834Y026864D01*
X010825Y026886D01*
X010814Y026904D01*
X010801Y026918D01*
X010786Y026928D01*
X010769Y026934D01*
X01075Y026936D01*
X01115D01*
X011131Y026934D01*
D02*
G37*
G36*
X050697Y021196D02*
X050719Y021179D01*
X050743Y021164D01*
X050768Y02115D01*
X050795Y021139D01*
X050823Y02113D01*
X050852Y021123D01*
X050882Y021118D01*
X050914Y021116D01*
X050947Y021115D01*
X050635Y020803D01*
X050634Y020836D01*
X050632Y020868D01*
X050627Y020898D01*
X05062Y020927D01*
X050611Y020955D01*
X0506Y020982D01*
X050586Y021007D01*
X050571Y021031D01*
X050554Y021053D01*
X050534Y021074D01*
X050676Y021216D01*
X050697Y021196D01*
D02*
G37*
G36*
X021549Y021058D02*
X02153Y021037D01*
X021514Y021016D01*
X021499Y020993D01*
X021486Y020969D01*
X021475Y020944D01*
X021466Y020918D01*
X021459Y020891D01*
X021455Y020863D01*
X021452Y020833D01*
X021451Y020803D01*
X021153Y021101D01*
X021183Y021102D01*
X021213Y021105D01*
X021241Y021109D01*
X021268Y021116D01*
X021294Y021125D01*
X021319Y021136D01*
X021343Y021149D01*
X021366Y021164D01*
X021387Y02118D01*
X021408Y021199D01*
X021549Y021058D01*
D02*
G37*
G36*
X018549D02*
X01853Y021037D01*
X018514Y021016D01*
X018499Y020993D01*
X018486Y020969D01*
X018475Y020944D01*
X018466Y020918D01*
X018459Y020891D01*
X018455Y020863D01*
X018452Y020833D01*
X018451Y020803D01*
X018153Y021101D01*
X018183Y021102D01*
X018213Y021105D01*
X018241Y021109D01*
X018268Y021116D01*
X018294Y021125D01*
X018319Y021136D01*
X018343Y021149D01*
X018366Y021164D01*
X018387Y02118D01*
X018408Y021199D01*
X018549Y021058D01*
D02*
G37*
G36*
X052028Y020495D02*
X051995Y020486D01*
X051933Y020464D01*
X051904Y020452D01*
X051851Y020424D01*
X051826Y020408D01*
X051803Y020392D01*
X051782Y020375D01*
X051762Y020356D01*
X051581Y020457D01*
X051601Y020479D01*
X051618Y020502D01*
X051632Y020526D01*
X051643Y02055D01*
X051651Y020576D01*
X051656Y020602D01*
X051658Y020629D01*
X051657Y020657D01*
X051653Y020686D01*
X051647Y020716D01*
X052028Y020495D01*
D02*
G37*
G36*
X06485Y016034D02*
X064851Y016011D01*
X064854Y015976D01*
X064859Y015946D01*
X064866Y01592D01*
X064875Y015898D01*
X064886Y01588D01*
X064899Y015866D01*
X064914Y015856D01*
X064931Y01585D01*
X06495Y015848D01*
X06486D01*
X064869Y015703D01*
X064878Y015652D01*
X064888Y015609D01*
X064899Y015573D01*
X064912Y015546D01*
X064927Y015527D01*
X064573D01*
X064588Y015546D01*
X064601Y015573D01*
X064612Y015609D01*
X064622Y015652D01*
X064631Y015703D01*
X064643Y01583D01*
X064644Y015848D01*
X06455D01*
X064569Y01585D01*
X064586Y015856D01*
X064601Y015866D01*
X064614Y01588D01*
X064625Y015898D01*
X064634Y01592D01*
X064641Y015946D01*
X064646Y015976D01*
X064649Y016011D01*
X06465Y016034D01*
X06465Y016079D01*
X06485D01*
X06485Y016034D01*
D02*
G37*
G36*
X064658Y014851D02*
X064619Y014879D01*
X064573Y014894D01*
X06452D01*
X06446Y014879D01*
X064393Y014851D01*
X064319Y014809D01*
X064238Y014752D01*
X064149Y014681D01*
X063951Y014498D01*
X063598Y014851D01*
X063697Y014954D01*
X063852Y015138D01*
X063909Y015219D01*
X063951Y015293D01*
X063979Y01536D01*
X063994Y01542D01*
Y015473D01*
X063979Y015519D01*
X063951Y015558D01*
X064658Y014851D01*
D02*
G37*
G36*
X058612Y012604D02*
X058599Y012577D01*
X058588Y012541D01*
X058578Y012498D01*
X058569Y012447D01*
X058562Y012378D01*
X058649D01*
X05863Y012375D01*
X058613Y012369D01*
X058599Y012357D01*
X058586Y012341D01*
X058575Y012321D01*
X058566Y012296D01*
X058559Y012267D01*
X058554Y012233D01*
X058553Y012221D01*
X058551Y012162D01*
X05855Y012071D01*
X05835D01*
X058349Y012162D01*
X058344Y01225D01*
X058341Y012267D01*
X058334Y012296D01*
X058325Y012321D01*
X058314Y012341D01*
X058301Y012357D01*
X058287Y012369D01*
X05827Y012375D01*
X058251Y012378D01*
X058335D01*
X058331Y012447D01*
X058322Y012498D01*
X058312Y012541D01*
X058301Y012577D01*
X058288Y012604D01*
X058273Y012623D01*
X058627D01*
X058612Y012604D01*
D02*
G37*
G36*
X058242Y010951D02*
X058224Y010931D01*
X058207Y01091D01*
X058192Y010887D01*
X05818Y010864D01*
X058169Y01084D01*
X05816Y010814D01*
X058153Y010788D01*
X058149Y010761D01*
X058146Y010732D01*
X058145Y010703D01*
X057853Y010995D01*
X057882Y010996D01*
X057911Y010999D01*
X057938Y011003D01*
X057964Y01101D01*
X05799Y011019D01*
X058014Y01103D01*
X058037Y011042D01*
X05806Y011057D01*
X058081Y011074D01*
X058101Y011092D01*
X058242Y010951D01*
D02*
G37*
G36*
X011775Y013677D02*
X011759Y013657D01*
X011746Y013637D01*
X011733Y013616D01*
X011723Y013593D01*
X011715Y01357D01*
X011708Y013547D01*
X011704Y013522D01*
X011701Y013496D01*
X0117Y01347D01*
X0115D01*
X011499Y013496D01*
X011496Y013522D01*
X011492Y013547D01*
X011485Y01357D01*
X011477Y013593D01*
X011467Y013616D01*
X011454Y013637D01*
X011441Y013657D01*
X011425Y013677D01*
X011407Y013695D01*
X011793D01*
X011775Y013677D01*
D02*
G37*
G36*
X011701Y012225D02*
X011705Y012196D01*
X011711Y012168D01*
X01172Y01214D01*
X011732Y012113D01*
X011746Y012086D01*
X011762Y012059D01*
X011782Y012033D01*
X011803Y012007D01*
X011827Y011982D01*
X011372D01*
X011397Y012007D01*
X011418Y012033D01*
X011438Y012059D01*
X011454Y012086D01*
X011468Y012113D01*
X01148Y01214D01*
X011489Y012168D01*
X011495Y012196D01*
X011499Y012225D01*
X0115Y012254D01*
X0117D01*
X011701Y012225D01*
D02*
G37*
G36*
X06063Y012375D02*
X060613Y012369D01*
X060599Y012357D01*
X060586Y012341D01*
X060575Y012321D01*
X060566Y012296D01*
X060559Y012267D01*
X060554Y012233D01*
X060551Y012194D01*
X06055Y012151D01*
X06035D01*
X060349Y012194D01*
X060346Y012233D01*
X060341Y012267D01*
X060334Y012296D01*
X060325Y012321D01*
X060314Y012341D01*
X060301Y012357D01*
X060287Y012369D01*
X06027Y012375D01*
X060251Y012378D01*
X060649D01*
X06063Y012375D01*
D02*
G37*
G36*
X061369Y011074D02*
X06139Y011057D01*
X061413Y011042D01*
X061436Y01103D01*
X06146Y011019D01*
X061486Y01101D01*
X061512Y011003D01*
X061539Y010999D01*
X061568Y010996D01*
X061597Y010995D01*
X061305Y010703D01*
X061304Y010732D01*
X061301Y010761D01*
X061297Y010788D01*
X06129Y010814D01*
X061281Y01084D01*
X06127Y010864D01*
X061258Y010887D01*
X061243Y01091D01*
X061226Y010931D01*
X061208Y010951D01*
X061349Y011092D01*
X061369Y011074D01*
D02*
G37*
D10*
X0451Y01115D02*
X04559Y01164D01*
Y013968D01*
X044808Y01475D02*
X04559Y013968D01*
D34*
X038658Y0137D02*
X039708Y01475D01*
X01795Y0137D02*
X038658D01*
X01615Y0119D02*
X01795Y0137D01*
X036Y01295D02*
X0385D01*
X039583Y012317D02*
X0396Y0123D01*
X0116Y01075D02*
X011625Y010775D01*
X016125D01*
X01615Y0108D01*
Y0119D01*
X039708Y01475D02*
X040792D01*
X043592Y01755D02*
X0441D01*
X040792Y01475D02*
X043592Y01755D01*
X04115Y0205D02*
X0441Y01755D01*
X05295D01*
X056992D01*
X05295D02*
Y0208D01*
X058521Y013421D02*
X05895Y01385D01*
X058521Y012871D02*
Y013421D01*
X05845Y0128D02*
X058521Y012871D01*
X05895Y01385D02*
X06295D01*
X06445Y01535D01*
X06475D01*
D35*
X061008Y01755D02*
X061058Y0175D01*
X0619D01*
X06195Y01745D01*
X06475Y01535D02*
Y0177D01*
X06015Y0223D02*
X06475Y0177D01*
X01375Y0223D02*
X06015D01*
X04985Y0219D02*
X05095Y0208D01*
X01925Y0219D02*
X04985D01*
X01815Y0208D02*
X01925Y0219D01*
X037378Y019722D02*
X0385Y0186D01*
X032228Y019722D02*
X037378D01*
X03115Y0208D02*
X032228Y019722D01*
X0323Y01865D02*
X03565D01*
X03015Y0208D02*
X0323Y01865D01*
X0385Y01095D02*
X038649D01*
X038999Y0113D01*
X0396D01*
X036Y01095D02*
X0385D01*
X035851D02*
X036D01*
X0355Y011301D02*
X035851Y01095D01*
X030651Y011301D02*
X0355D01*
X03015Y0108D02*
X030651Y011301D01*
X0277Y01025D02*
X04065D01*
X044794Y01095D02*
X044994Y01115D01*
X0451D01*
X04385Y01095D02*
X044794D01*
X04135D02*
X04385D01*
X04065Y01025D02*
X04135Y01095D01*
X02715Y0108D02*
X0277Y01025D01*
X02186Y02151D02*
X047512D01*
X02115Y0208D02*
X02186Y02151D01*
X0116Y01175D02*
Y013892D01*
X039708Y01475D02*
X039733Y014775D01*
Y016475D01*
X039758Y0165D01*
X01095Y0251D02*
X01375Y0223D01*
X047512Y02151D02*
X048737Y020285D01*
X05155D01*
X05195Y020685D01*
Y0208D01*
X052032Y020718D01*
X01095Y0251D02*
Y02725D01*
X06045Y01185D02*
X0616Y0107D01*
X06045Y01185D02*
Y0128D01*
X05785Y0107D02*
X05845Y0113D01*
Y0128D01*
D36*
X0606Y0107D02*
D03*
X0616D02*
D03*
X05885D02*
D03*
X05785D02*
D03*
X0396Y0123D02*
D03*
Y0113D02*
D03*
X0451Y01215D02*
D03*
Y01115D02*
D03*
D37*
X03665Y01865D02*
D03*
X0395Y0186D02*
D03*
X0116Y01175D02*
D03*
X06295Y01745D02*
D03*
D38*
X03565Y01865D02*
D03*
X0385Y0186D02*
D03*
X06195Y01745D02*
D03*
D39*
X044808Y01475D02*
D03*
X040792D02*
D03*
X044808Y0165D02*
D03*
X040792D02*
D03*
X039758D02*
D03*
X035742D02*
D03*
X035692Y01475D02*
D03*
X039708D02*
D03*
X0116Y013892D02*
D03*
Y017908D02*
D03*
X061008Y01755D02*
D03*
X056992D02*
D03*
D40*
X036Y01295D02*
D03*
X0385Y01095D02*
D03*
Y01295D02*
D03*
X036Y01095D02*
D03*
X04135Y01295D02*
D03*
X04385Y01095D02*
D03*
Y01295D02*
D03*
X04135Y01095D02*
D03*
D41*
X05395Y0208D02*
D03*
D42*
X05295D02*
D03*
X05195D02*
D03*
X05095D02*
D03*
X04995D02*
D03*
X04895D02*
D03*
X01095Y03125D02*
D03*
Y03025D02*
D03*
Y02925D02*
D03*
Y02825D02*
D03*
D43*
X04115Y0205D02*
D03*
D44*
Y0195D02*
D03*
Y0185D02*
D03*
D45*
X01095Y02725D02*
D03*
D46*
X01615Y0108D02*
D03*
D47*
X01715D02*
D03*
X01815D02*
D03*
X01915D02*
D03*
X02015D02*
D03*
X02115D02*
D03*
X02215D02*
D03*
X02315D02*
D03*
X02415D02*
D03*
X02515D02*
D03*
X02615D02*
D03*
X02715D02*
D03*
X02815D02*
D03*
X02915D02*
D03*
X03015D02*
D03*
X03115D02*
D03*
X03215D02*
D03*
X03315D02*
D03*
X03415D02*
D03*
Y0208D02*
D03*
X03315D02*
D03*
X03215D02*
D03*
X03115D02*
D03*
X03015D02*
D03*
X02915D02*
D03*
X02815D02*
D03*
X02715D02*
D03*
X02615D02*
D03*
X02515D02*
D03*
X02415D02*
D03*
X02315D02*
D03*
X02215D02*
D03*
X02115D02*
D03*
X02015D02*
D03*
X01915D02*
D03*
X01815D02*
D03*
X01715D02*
D03*
X01615D02*
D03*
D48*
X0116Y01075D02*
D03*
D49*
X06045Y0128D02*
D03*
X05945D02*
D03*
X05845D02*
D03*
D50*
X05945Y0148D02*
D03*
D51*
X06675Y01435D02*
D03*
D52*
X06475Y01285D02*
D03*
Y01535D02*
D03*
M02*
